<svg xmlns="http://www.w3.org/2000/svg" xmlns:xlink="http://www.w3.org/1999/xlink" width="960" height="720" overflow="hidden" xmlns:v="https://vecta.io/nano"><style><![CDATA[.B{stroke-linejoin:round}.C{stroke-miterlimit:10}.D{fill:none}.E{stroke-width:3.667}.F{stroke:#fff}.G{stroke-width:2.667}.H{stroke-linecap:round}.I{fill:#111}.J{stroke:#ced7e1}.K{stroke:#2f5f98}.L{stroke-linecap:square}.M{fill:#2f5f98}.N{stroke:#7cb9ab}.O{fill:#7cb9ab}.P{stroke:#f59e0b}.Q{fill:#f59e0b}.R{stroke:#e6605d}.S{fill:#e6605d}.T{stroke-dasharray:5.333 4}.U{stroke-width:1.333}.V{stroke-dasharray:4 3}]]></style><defs><path id="A" d="M0 109h504v556H0z"/><path id="B" d="M108 197h370v381H108z"/><path id="C" d="M504 109h456v556H504z"/><path id="D" d="M561 195h375v383H561z"/><path id="E" d="M484.5 218.498a7.5 7.5 0 1 1-7.5-7.5 7.5 7.5 0 0 1 7.5 7.5z"/><path id="F" d="M484.5 287.498a7.5 7.5 0 1 1-7.5-7.5 7.5 7.5 0 0 1 7.5 7.5z"/><path id="G" d="M65.468 221h1.76v-11.36h-2.704l-1.344 1.744h2.288zm6.672-1.264c0-.752-.624-1.392-1.392-1.392-.752 0-1.376.64-1.376 1.392a1.39 1.39 0 0 0 1.376 1.392c.768 0 1.392-.624 1.392-1.392zm9.712-2.944v-2.976c0-2.56-1.712-4.368-4.128-4.368-2.4 0-4.112 1.808-4.112 4.368v2.976c0 2.56 1.712 4.368 4.112 4.368 2.416 0 4.128-1.808 4.128-4.368zm-6.48 0v-2.976c0-1.648.976-2.64 2.352-2.64 1.392 0 2.368.992 2.368 2.64v2.976c0 1.664-.976 2.64-2.368 2.64-1.376 0-2.352-.976-2.352-2.64zm16.496 0v-2.976c0-2.56-1.712-4.368-4.128-4.368-2.4 0-4.112 1.808-4.112 4.368v2.976c0 2.56 1.712 4.368 4.112 4.368 2.416 0 4.128-1.808 4.128-4.368zm-6.48 0v-2.976c0-1.648.976-2.64 2.352-2.64 1.392 0 2.368.992 2.368 2.64v2.976c0 1.664-.976 2.64-2.368 2.64-1.376 0-2.352-.976-2.352-2.64z"/><path id="H" d="M102.885 604h1.76v-11.36h-2.704l-1.344 1.744h2.288zm12.304-4.208v-2.976c0-2.56-1.712-4.368-4.128-4.368-2.4 0-4.112 1.808-4.112 4.368v2.976c0 2.56 1.712 4.368 4.112 4.368 2.416 0 4.128-1.808 4.128-4.368zm-6.48 0v-2.976c0-1.648.976-2.64 2.352-2.64 1.392 0 2.368.992 2.368 2.64v2.976c0 1.664-.976 2.64-2.368 2.64-1.376 0-2.352-.976-2.352-2.64z"/><path id="I" d="M168.488 602.272h-5.2c.288-1.024 1.552-1.664 2.576-2.432 1.664-1.2 2.512-2.176 2.512-3.984 0-2.256-1.664-3.408-3.568-3.408-2.16 0-3.84 1.472-3.84 3.664h1.776c.016-1.2.912-1.936 2.048-1.936 1.12 0 1.808.72 1.808 1.728 0 1.152-.736 1.792-1.904 2.64-1.664 1.232-3.728 2.32-3.728 4.816v.64h7.52zm9.92-2.48v-2.976c0-2.56-1.712-4.368-4.128-4.368-2.4 0-4.112 1.808-4.112 4.368v2.976c0 2.56 1.712 4.368 4.112 4.368 2.416 0 4.128-1.808 4.128-4.368zm-6.48 0v-2.976c0-1.648.976-2.64 2.352-2.64 1.392 0 2.368.992 2.368 2.64v2.976c0 1.664-.976 2.64-2.368 2.64-1.376 0-2.352-.976-2.352-2.64z"/><path id="J" d="M230.124 600.8c0-1.296-.72-2.256-1.712-2.688a2.908 2.908 0 0 0 1.392-2.464c.016-1.856-1.44-3.2-3.552-3.2-2.048 0-3.856 1.376-3.856 3.664h1.776c0-1.216.912-1.936 2.08-1.936.992 0 1.792.64 1.776 1.584s-.752 1.616-1.872 1.616h-.896v1.504h.896c1.312 0 2.192.608 2.192 1.808-.016 1.104-.896 1.744-2.032 1.744-1.28 0-2.272-.752-2.368-2h-1.76c.048 2.288 1.904 3.728 4.128 3.728 2.256 0 3.808-1.36 3.808-3.36zm9.904-1.008v-2.976c0-2.56-1.712-4.368-4.128-4.368-2.4 0-4.112 1.808-4.112 4.368v2.976c0 2.56 1.712 4.368 4.112 4.368 2.416 0 4.128-1.808 4.128-4.368zm-6.48 0v-2.976c0-1.648.976-2.64 2.352-2.64 1.392 0 2.368.992 2.368 2.64v2.976c0 1.664-.976 2.64-2.368 2.64-1.376 0-2.352-.976-2.352-2.64z"/><path id="K" d="M288.821 604h1.76v-2.848h1.52v-1.632h-1.52v-6.88h-1.568l-6.064 7.088v1.424h5.872zm0-4.48h-3.664l3.664-4.256zm13.008.272v-2.976c0-2.56-1.712-4.368-4.128-4.368-2.4 0-4.112 1.808-4.112 4.368v2.976c0 2.56 1.712 4.368 4.112 4.368 2.416 0 4.128-1.808 4.128-4.368zm-6.48 0v-2.976c0-1.648.976-2.64 2.352-2.64 1.392 0 2.368.992 2.368 2.64v2.976c0 1.664-.976 2.64-2.368 2.64-1.376 0-2.352-.976-2.352-2.64z"/><path id="L" d="M345.19 600.816c.064 1.888 1.856 3.344 3.92 3.344 2.288 0 3.904-1.536 3.904-3.664 0-2.256-1.424-3.92-3.584-3.92-.736 0-1.36.208-1.776.496l.528-2.72h4.032v-1.712h-5.408l-1.216 6.24 1.584.496c.368-.704 1.056-1.168 1.984-1.168 1.216 0 2.08.928 2.08 2.112 0 1.168-.848 2.112-2.128 2.112-1.04 0-1.888-.688-2.112-1.616zm17.6-1.024v-2.976c0-2.56-1.712-4.368-4.128-4.368-2.4 0-4.112 1.808-4.112 4.368v2.976c0 2.56 1.712 4.368 4.112 4.368 2.416 0 4.128-1.808 4.128-4.368zm-6.48 0v-2.976c0-1.648.976-2.64 2.352-2.64 1.392 0 2.368.992 2.368 2.64v2.976c0 1.664-.976 2.64-2.368 2.64-1.376 0-2.352-.976-2.352-2.64z"/><path id="M" d="M414.472 600.32c0-2.128-1.744-3.648-3.536-3.648h-.176l3.2-4.032h-2.208l-3.792 4.752c-.752.992-1.28 1.776-1.28 2.944 0 2.144 1.584 3.824 3.888 3.824 2.32 0 3.904-1.68 3.904-3.84zm-6.016.016c0-1.168.896-2.128 2.112-2.128s2.128.96 2.128 2.128c0 1.184-.912 2.128-2.128 2.128s-2.112-.944-2.112-2.128zm15.808-.544v-2.976c0-2.56-1.712-4.368-4.128-4.368-2.4 0-4.112 1.808-4.112 4.368v2.976c0 2.56 1.712 4.368 4.112 4.368 2.416 0 4.128-1.808 4.128-4.368zm-6.48 0v-2.976c0-1.648.976-2.64 2.352-2.64 1.392 0 2.368.992 2.368 2.64v2.976c0 1.664-.976 2.64-2.368 2.64-1.376 0-2.352-.976-2.352-2.64z"/><path id="N" d="M161 167.5a3.5 3.5 0 1 1-7 0 3.5 3.5 0 0 1 7 0Z"/><path id="O" d="M402.891 171h1.694l1.12-2.604h4.452l1.134 2.604h1.708l-4.34-9.94h-1.428Zm3.444-4.06 1.596-3.682 1.596 3.682Zm9.996 4.06h1.428l4.172-9.94h-1.806l-3.08 7.434-3.094-7.434h-1.792Zm6.902 0h1.638v-9.94h-1.638zm4.074 0h1.638v-4.256h3.36v-1.554h-3.36v-2.562h4.27v-1.568h-5.908z"/><clipPath id="P"><path d="M0 0h960v720H0z"/></clipPath><clipPath id="Q"><use xlink:href="#A"/></clipPath><clipPath id="R"><use xlink:href="#A"/></clipPath><clipPath id="S"><use xlink:href="#A"/></clipPath><clipPath id="T"><use xlink:href="#A"/></clipPath><clipPath id="U"><use xlink:href="#B"/></clipPath><clipPath id="V"><use xlink:href="#A"/></clipPath><clipPath id="W"><use xlink:href="#B"/></clipPath><clipPath id="X"><use xlink:href="#A"/></clipPath><clipPath id="Y"><use xlink:href="#B"/></clipPath><clipPath id="Z"><use xlink:href="#A"/></clipPath><clipPath id="a"><use xlink:href="#B"/></clipPath><clipPath id="b"><use xlink:href="#A"/></clipPath><clipPath id="c"><use xlink:href="#A"/></clipPath><clipPath id="d"><use xlink:href="#A"/></clipPath><clipPath id="e"><use xlink:href="#A"/></clipPath><clipPath id="f"><use xlink:href="#A"/></clipPath><clipPath id="g"><use xlink:href="#A"/></clipPath><clipPath id="h"><use xlink:href="#A"/></clipPath><clipPath id="i"><use xlink:href="#A"/></clipPath><clipPath id="j"><use xlink:href="#A"/></clipPath><clipPath id="k"><use xlink:href="#A"/></clipPath><clipPath id="l"><use xlink:href="#A"/></clipPath><clipPath id="m"><use xlink:href="#A"/></clipPath><clipPath id="n"><use xlink:href="#A"/></clipPath><clipPath id="o"><use xlink:href="#A"/></clipPath><clipPath id="p"><use xlink:href="#A"/></clipPath><clipPath id="q"><use xlink:href="#A"/></clipPath><clipPath id="r"><use xlink:href="#A"/></clipPath><clipPath id="s"><use xlink:href="#A"/></clipPath><clipPath id="t"><use xlink:href="#A"/></clipPath><clipPath id="u"><use xlink:href="#A"/></clipPath><clipPath id="v"><use xlink:href="#A"/></clipPath><clipPath id="w"><use xlink:href="#A"/></clipPath><clipPath id="x"><use xlink:href="#A"/></clipPath><clipPath id="y"><use xlink:href="#A"/></clipPath><clipPath id="z"><use xlink:href="#A"/></clipPath><clipPath id="AA"><use xlink:href="#A"/></clipPath><clipPath id="AB"><use xlink:href="#A"/></clipPath><clipPath id="AC"><use xlink:href="#A"/></clipPath><clipPath id="AD"><use xlink:href="#C"/></clipPath><clipPath id="AE"><use xlink:href="#C"/></clipPath><clipPath id="AF"><use xlink:href="#C"/></clipPath><clipPath id="AG"><use xlink:href="#C"/></clipPath><clipPath id="AH"><use xlink:href="#D"/></clipPath><clipPath id="AI"><use xlink:href="#C"/></clipPath><clipPath id="AJ"><use xlink:href="#D"/></clipPath><clipPath id="AK"><use xlink:href="#C"/></clipPath><clipPath id="AL"><use xlink:href="#D"/></clipPath><clipPath id="AM"><use xlink:href="#C"/></clipPath><clipPath id="AN"><use xlink:href="#D"/></clipPath><clipPath id="AO"><use xlink:href="#C"/></clipPath><clipPath id="AP"><use xlink:href="#C"/></clipPath><clipPath id="AQ"><use xlink:href="#C"/></clipPath><clipPath id="AR"><use xlink:href="#C"/></clipPath><clipPath id="AS"><use xlink:href="#C"/></clipPath><clipPath id="AT"><use xlink:href="#C"/></clipPath><clipPath id="AU"><use xlink:href="#C"/></clipPath><clipPath id="AV"><use xlink:href="#C"/></clipPath><clipPath id="AW"><use xlink:href="#C"/></clipPath><clipPath id="AX"><use xlink:href="#C"/></clipPath><clipPath id="AY"><use xlink:href="#C"/></clipPath><clipPath id="AZ"><use xlink:href="#C"/></clipPath><clipPath id="Aa"><use xlink:href="#C"/></clipPath><clipPath id="Ab"><use xlink:href="#C"/></clipPath><clipPath id="Ac"><use xlink:href="#C"/></clipPath><clipPath id="Ad"><use xlink:href="#C"/></clipPath><clipPath id="Ae"><use xlink:href="#C"/></clipPath><clipPath id="Af"><use xlink:href="#C"/></clipPath><clipPath id="Ag"><use xlink:href="#C"/></clipPath><clipPath id="Ah"><use xlink:href="#C"/></clipPath><clipPath id="Ai"><use xlink:href="#C"/></clipPath><clipPath id="Aj"><use xlink:href="#C"/></clipPath><clipPath id="Ak"><use xlink:href="#C"/></clipPath><clipPath id="Al"><use xlink:href="#C"/></clipPath><clipPath id="Am"><use xlink:href="#C"/></clipPath><clipPath id="An"><use xlink:href="#C"/></clipPath><clipPath id="Ao"><use xlink:href="#C"/></clipPath></defs><g clip-path="url(#P)"><path fill="#fff" d="M0 0h960v720H0Z"/><path fill="#f8f8f8" d="M0 11h960v98H0Z"/><path fill="#335ab9" d="M33.052 48.865A13.564 13.564 0 0 0 46.63 62.444c5.365 0 9.879-2.775 12.136-6.993l-4.662-2.59c-1.554 2.701-4.07 4.403-7.474 4.403-4.588 0-8.177-3.811-8.177-8.399s3.589-8.399 8.177-8.399c3.404 0 5.92 1.702 7.474 4.403l4.662-2.59c-2.257-4.218-6.771-6.993-12.136-6.993a13.564 13.564 0 0 0-13.58 13.579zm47.175 3.885c0-5.402-4.366-9.657-9.731-9.657s-9.731 4.255-9.731 9.657 4.366 9.657 9.73 9.657 9.732-4.255 9.732-9.657zm-14.356 0c0-2.849 1.96-4.921 4.625-4.921s4.588 2.072 4.588 4.921-1.924 4.921-4.588 4.921-4.625-2.072-4.625-4.921zM83.89 62h5.069v-9.028c0-3.552 1.517-5.254 3.7-5.254 1.998 0 2.886 1.665 2.886 4.403V62h5.069v-9.028c0-3.552 1.517-5.254 3.7-5.254 1.998 0 2.886 1.665 2.886 4.403V62h5.069V51.27c0-4.995-2.516-8.177-6.92-8.177-2.108 0-4.587 1.11-5.734 3.404-1.11-2.146-3.034-3.404-5.735-3.404-2.257 0-3.922 1.073-4.921 2.516V43.5h-5.07zm33.04 7.733H122v-9.805c.85 1.184 2.812 2.479 5.365 2.479 4.92 0 8.695-4.403 8.695-9.657s-3.774-9.657-8.695-9.657c-2.553 0-4.514 1.295-5.365 2.479V43.5h-5.07zm13.987-16.983c0 2.886-1.887 5.032-4.662 5.032s-4.662-2.146-4.662-5.032 1.887-5.032 4.662-5.032 4.662 2.146 4.662 5.032zM139.76 62h5.069v-8.843c0-3.034 1.59-4.921 3.996-4.921.814 0 1.517.148 2.294.407V43.5a5.82 5.82 0 0 0-1.702-.222c-2.072 0-3.96 1.369-4.588 3.182V43.5h-5.07zm12.765-9.25c0 5.846 4.292 9.657 9.805 9.657 3.885 0 6.882-1.665 8.584-4.144l-3.774-2.812c-.814 1.258-2.48 2.331-4.773 2.331-2.442 0-4.625-1.369-4.921-3.848h13.838c.074-.777.074-1.295.074-1.739 0-5.994-4.255-9.102-9.102-9.102-5.624 0-9.731 4.181-9.731 9.657zm9.583-5.476c1.887 0 3.737 1.036 4.18 3.219h-8.657c.48-2.257 2.59-3.219 4.477-3.219zm26.232 9.102c0-3.219-2.034-4.847-5.364-5.735l-1.74-.518c-1.553-.407-1.812-1.036-1.812-1.591 0-.851.962-1.258 1.85-1.258 1.22 0 2.294.555 3.145 1.628l3.33-2.701c-1.406-2.035-3.59-3.108-6.401-3.108-3.922 0-6.882 2.183-6.956 5.587-.074 2.849 1.702 5.032 5.106 5.92l1.369.333c2.035.555 2.479.999 2.479 1.776 0 .925-1 1.332-2.035 1.332-1.776 0-3.33-.777-4.144-2.146l-3.478 2.96c1.59 2.405 4.366 3.552 7.622 3.552 3.959 0 7.03-2.442 7.03-6.031zm16.984 0c0-3.219-2.035-4.847-5.365-5.735l-1.74-.518c-1.553-.407-1.812-1.036-1.812-1.591 0-.851.962-1.258 1.85-1.258 1.22 0 2.294.555 3.145 1.628l3.33-2.701c-1.406-2.035-3.59-3.108-6.401-3.108-3.922 0-6.882 2.183-6.956 5.587-.074 2.849 1.702 5.032 5.106 5.92l1.369.333c2.035.555 2.479.999 2.479 1.776 0 .925-1 1.332-2.035 1.332-1.776 0-3.33-.777-4.144-2.146l-3.478 2.96c1.59 2.405 4.366 3.552 7.622 3.552 3.959 0 7.03-2.442 7.03-6.031zm9.509-19.129c0-1.776-1.443-3.219-3.256-3.219a3.25 3.25 0 0 0-3.22 3.219 3.25 3.25 0 0 0 3.22 3.219c1.813 0 3.256-1.443 3.256-3.219zM209.06 62h5.069V43.5h-5.07zm28.195-9.25c0-5.402-4.366-9.657-9.731-9.657s-9.731 4.255-9.731 9.657 4.366 9.657 9.73 9.657 9.732-4.255 9.732-9.657zm-14.356 0c0-2.849 1.96-4.921 4.625-4.921s4.588 2.072 4.588 4.921-1.924 4.921-4.588 4.921-4.625-2.072-4.625-4.921zM240.917 62h5.07v-9.028c0-3.552 1.775-5.254 4.106-5.254 2.11 0 3.256 1.628 3.256 4.292V62h5.07V51.159c0-4.81-2.664-8.066-7.141-8.066-2.405 0-4.33 1.036-5.291 2.516V43.5h-5.07zm39.813-26.27h-8.733V62h5.365v-8.584h3.367c5.328 0 9.213-3.848 9.213-8.843s-3.885-8.843-9.213-8.843zm-.075 12.654h-3.293v-7.622h3.293c2.442 0 4.07 1.665 4.07 3.811s-1.628 3.811-4.07 3.811zm10.767 4.366c0 5.846 4.292 9.657 9.805 9.657 3.885 0 6.882-1.665 8.584-4.144l-3.774-2.812c-.814 1.258-2.479 2.331-4.773 2.331-2.442 0-4.625-1.369-4.92-3.848h13.837c.074-.777.074-1.295.074-1.739 0-5.994-4.255-9.102-9.102-9.102-5.624 0-9.73 4.181-9.73 9.657zm9.583-5.476c1.887 0 3.737 1.036 4.181 3.219h-8.658c.481-2.257 2.59-3.219 4.477-3.219zM313.992 62h5.07v-8.843c0-3.034 1.59-4.921 3.995-4.921.814 0 1.517.148 2.294.407V43.5a5.82 5.82 0 0 0-1.702-.222c-2.072 0-3.959 1.369-4.588 3.182V43.5h-5.069zm16.576 0h5.07V47.94h5.216V43.5h-5.217v-1.776c0-2.257.962-3.145 3.145-3.145.814 0 1.48.111 2.072.333v-4.477c-.814-.259-1.813-.407-3.219-.407-3.922 0-7.067 2.553-7.067 7.067V43.5h-3.737v4.44h3.737zm31.006-9.25c0-5.402-4.366-9.657-9.73-9.657s-9.732 4.255-9.732 9.657 4.366 9.657 9.731 9.657 9.731-4.255 9.731-9.657zm-14.356 0c0-2.849 1.961-4.921 4.625-4.921s4.588 2.072 4.588 4.921-1.924 4.921-4.588 4.921-4.625-2.072-4.625-4.921zM365.237 62h5.07v-8.843c0-3.034 1.59-4.921 3.995-4.921.814 0 1.517.148 2.294.407V43.5a5.82 5.82 0 0 0-1.702-.222c-2.072 0-3.959 1.369-4.588 3.182V43.5h-5.069zm14.615 0h5.069v-9.028c0-3.552 1.517-5.254 3.7-5.254 1.998 0 2.886 1.665 2.886 4.403V62h5.069v-9.028c0-3.552 1.517-5.254 3.7-5.254 1.998 0 2.886 1.665 2.886 4.403V62h5.069V51.27c0-4.995-2.516-8.177-6.919-8.177-2.109 0-4.588 1.11-5.735 3.404-1.11-2.146-3.034-3.404-5.735-3.404-2.257 0-3.922 1.073-4.921 2.516V43.5h-5.069zm31.857-9.25c0 5.254 3.774 9.657 8.695 9.657 2.553 0 4.514-1.295 5.328-2.479V62h5.069V43.5h-5.069v2.072c-.814-1.184-2.775-2.479-5.328-2.479-4.921 0-8.695 4.403-8.695 9.657zm14.43 0c0 2.886-1.887 5.032-4.662 5.032s-4.662-2.146-4.662-5.032 1.887-5.032 4.662-5.032 4.662 2.146 4.662 5.032zm9.583 9.25h5.069v-9.028c0-3.552 1.776-5.254 4.107-5.254 2.109 0 3.256 1.628 3.256 4.292V62h5.069V51.159c0-4.81-2.664-8.066-7.141-8.066-2.405 0-4.329 1.036-5.291 2.516V43.5h-5.069zm39.553-4.921l-4.403-2.368c-.74 1.702-2.331 2.96-4.366 2.96-2.664 0-4.7-2.072-4.7-4.921s2.036-4.921 4.7-4.921c2.035 0 3.626 1.258 4.366 2.96l4.403-2.368c-1.591-3.182-4.921-5.328-8.77-5.328-5.475 0-9.804 4.07-9.804 9.657s4.329 9.657 9.805 9.657c3.848 0 7.178-2.146 8.769-5.328zm2.072-4.329c0 5.846 4.292 9.657 9.805 9.657 3.885 0 6.882-1.665 8.584-4.144l-3.774-2.812c-.814 1.258-2.48 2.331-4.773 2.331-2.442 0-4.625-1.369-4.921-3.848h13.838c.074-.777.074-1.295.074-1.739 0-5.994-4.255-9.102-9.102-9.102-5.624 0-9.731 4.181-9.731 9.657zm9.583-5.476c1.887 0 3.737 1.036 4.18 3.219h-8.657c.48-2.257 2.59-3.219 4.477-3.219zm39.664 5.476c0-5.402-4.366-9.657-9.731-9.657s-9.731 4.255-9.731 9.657 4.366 9.657 9.73 9.657 9.732-4.255 9.732-9.657zm-14.356 0c0-2.849 1.96-4.921 4.625-4.921s4.588 2.072 4.588 4.921-1.924 4.921-4.588 4.921-4.625-2.072-4.625-4.921zm19.61 9.25h5.069V47.94h5.217V43.5h-5.217v-1.776c0-2.257.962-3.145 3.145-3.145.814 0 1.48.111 2.072.333v-4.477c-.814-.259-1.813-.407-3.22-.407-3.921 0-7.066 2.553-7.066 7.067V43.5h-3.737v4.44h3.737zm21.312 0h5.365V35.73h-5.365zm10.36 0h5.069v-9.028c0-3.552 1.517-5.254 3.7-5.254 1.998 0 2.886 1.665 2.886 4.403V62h5.069v-9.028c0-3.552 1.517-5.254 3.7-5.254 1.998 0 2.886 1.665 2.886 4.403V62h5.069V51.27c0-4.995-2.516-8.177-6.92-8.177-2.108 0-4.587 1.11-5.734 3.404-1.11-2.146-3.034-3.404-5.735-3.404-2.257 0-3.922 1.073-4.921 2.516V43.5h-5.07zm31.857-9.25c0 5.254 3.774 9.657 8.695 9.657 2.553 0 4.514-1.295 5.328-2.479V62h5.069V43.5h-5.07v2.072c-.813-1.184-2.774-2.479-5.327-2.479-4.921 0-8.695 4.403-8.695 9.657zm14.43 0c0 2.886-1.887 5.032-4.662 5.032s-4.662-2.146-4.662-5.032 1.887-5.032 4.662-5.032 4.662 2.146 4.662 5.032zm27.565 7.807V43.5h-5.07v2.072c-.961-1.406-2.996-2.479-5.364-2.479-4.81 0-8.732 4.144-8.732 9.361 0 5.18 3.922 9.324 8.732 9.324 2.368 0 4.403-1.073 5.365-2.442v1.258c0 2.96-1.961 5.069-4.958 5.069a8.36 8.36 0 0 1-5.772-2.294l-2.775 3.774c2.109 1.998 5.439 2.96 8.62 2.96 5.662 0 9.954-2.849 9.954-9.546zm-14.06-8.103c0-2.849 2.146-4.736 4.699-4.736s4.699 1.887 4.699 4.736c0 2.812-2.146 4.736-4.7 4.736s-4.698-1.924-4.698-4.736zm17.723.296c0 5.846 4.292 9.657 9.805 9.657 3.885 0 6.882-1.665 8.584-4.144l-3.774-2.812c-.814 1.258-2.48 2.331-4.773 2.331-2.442 0-4.625-1.369-4.921-3.848h13.838c.074-.777.074-1.295.074-1.739 0-5.994-4.255-9.102-9.102-9.102-5.624 0-9.731 4.181-9.731 9.657zm9.583-5.476c1.887 0 3.737 1.036 4.18 3.219h-8.657c.48-2.257 2.59-3.219 4.477-3.219zM672.521 62h5.365V51.381h8.325v-5.106h-8.325v-5.439h10.62V35.73H672.52zm36.001-9.25c0-5.402-4.366-9.657-9.73-9.657s-9.732 4.255-9.732 9.657 4.366 9.657 9.731 9.657 9.731-4.255 9.731-9.657zm-14.356 0c0-2.849 1.961-4.921 4.625-4.921s4.588 2.072 4.588 4.921-1.924 4.921-4.588 4.921-4.625-2.072-4.625-4.921zM712.185 62h5.07v-8.843c0-3.034 1.59-4.921 3.995-4.921.814 0 1.517.148 2.294.407V43.5a5.82 5.82 0 0 0-1.702-.222c-2.072 0-3.959 1.369-4.588 3.182V43.5h-5.069zm14.615 0h5.07v-9.028c0-3.552 1.516-5.254 3.7-5.254 1.997 0 2.885 1.665 2.885 4.403V62h5.07v-9.028c0-3.552 1.516-5.254 3.7-5.254 1.997 0 2.885 1.665 2.885 4.403V62h5.07V51.27c0-4.995-2.517-8.177-6.92-8.177-2.109 0-4.588 1.11-5.735 3.404-1.11-2.146-3.034-3.404-5.735-3.404-2.257 0-3.922 1.073-4.92 2.516V43.5h-5.07zm31.857-9.25c0 5.254 3.774 9.657 8.695 9.657 2.553 0 4.514-1.295 5.328-2.479V62h5.07V43.5h-5.07v2.072c-.814-1.184-2.775-2.479-5.328-2.479-4.92 0-8.695 4.403-8.695 9.657zm14.43 0c0 2.886-1.887 5.032-4.662 5.032s-4.662-2.146-4.662-5.032 1.887-5.032 4.662-5.032 4.662 2.146 4.662 5.032zm21.756 9.065v-4.477c-.592.222-1.258.333-2.072.333-2.183 0-3.145-.888-3.145-3.145V47.94h5.217V43.5h-5.217v-5.143h-5.069V43.5h-3.737v4.44h3.737v7.585c0 4.514 3.145 6.697 7.067 6.697 1.406 0 2.405-.148 3.22-.407zm16.872-5.439c0-3.219-2.035-4.847-5.365-5.735l-1.739-.518c-1.554-.407-1.813-1.036-1.813-1.591 0-.851.962-1.258 1.85-1.258 1.221 0 2.294.555 3.145 1.628l3.33-2.701c-1.406-2.035-3.589-3.108-6.4-3.108-3.923 0-6.883 2.183-6.957 5.587-.074 2.849 1.702 5.032 5.106 5.92l1.37.333c2.034.555 2.478.999 2.478 1.776 0 .925-.999 1.332-2.035 1.332-1.776 0-3.33-.777-4.144-2.146l-3.478 2.96c1.591 2.405 4.366 3.552 7.622 3.552 3.96 0 7.03-2.442 7.03-6.031z"/><g fill="#64748b"><path d="M35.843 90.56c-1.36-2.64-1.936-5.056-1.936-7.68s.576-5.04 1.936-7.68h-1.424c-1.376 2.496-2.048 5.04-2.048 7.68s.672 5.184 2.048 7.68zM37.65 88h1.873v-4.864h3.84V81.36h-3.84v-2.928h4.88V76.64H37.65zm15.489-4c0-2.32-1.824-4.16-4.192-4.16s-4.192 1.84-4.192 4.16 1.824 4.16 4.192 4.16 4.192-1.84 4.192-4.16zm-6.608 0c0-1.424.992-2.528 2.416-2.528 1.408 0 2.4 1.104 2.4 2.528s-.992 2.528-2.4 2.528c-1.424 0-2.416-1.104-2.416-2.528zm8.384 4h1.76v-3.904c0-1.6.912-2.448 1.92-2.448a2.74 2.74 0 0 1 .88.144v-1.808a3.443 3.443 0 0 0-.688-.064c-.912 0-1.808.592-2.112 1.504V80h-1.76zm6.08 0h1.76v-3.936c0-1.68.784-2.624 1.92-2.624.96 0 1.424.816 1.424 2.064V88h1.76v-3.936c0-1.68.768-2.624 1.904-2.624.96 0 1.424.816 1.424 2.064V88h1.76v-4.784c0-2.048-1.072-3.376-2.88-3.376-1.056 0-2.08.56-2.56 1.584-.432-.992-1.296-1.584-2.48-1.584-1.024 0-1.824.496-2.272 1.248V80h-1.76zm13.632-4c0 2.288 1.664 4.16 3.856 4.16 1.152 0 2.112-.592 2.56-1.232V88h1.76v-8h-1.76v1.072c-.448-.64-1.408-1.232-2.56-1.232-2.192 0-3.856 1.872-3.856 4.16zm6.56 0c0 1.44-.96 2.56-2.384 2.56s-2.384-1.12-2.384-2.56.96-2.56 2.384-2.56 2.384 1.12 2.384 2.56zm8.783 3.904v-1.568c-.255.096-.607.16-.943.16-.912 0-1.344-.368-1.344-1.36v-3.568h2.288V80h-2.288v-2.224h-1.76V80h-1.664v1.568h1.664v3.856c0 1.808 1.2 2.656 2.736 2.656.544 0 .96-.064 1.312-.176zm7.105-2.224c0-1.312-.832-2.016-2.24-2.432l-.816-.24c-.784-.224-.96-.56-.96-.944 0-.48.544-.752 1.072-.752.656 0 1.168.32 1.52.816l1.216-.928c-.56-.88-1.504-1.36-2.704-1.36-1.6 0-2.848.864-2.864 2.288-.016 1.184.704 2.064 2.096 2.448l.704.192c.96.288 1.232.56 1.232 1.024 0 .56-.528.848-1.152.848-.816 0-1.6-.4-1.92-1.104l-1.296.928c.576 1.136 1.792 1.696 3.216 1.696 1.648 0 2.896-.944 2.896-2.48zm4.32-4.48c0-.752-.624-1.392-1.392-1.392-.752 0-1.376.64-1.376 1.392a1.39 1.39 0 0 0 1.376 1.392c.768 0 1.392-.624 1.392-1.392zm0 5.536c0-.752-.624-1.392-1.392-1.392-.752 0-1.376.64-1.376 1.392a1.39 1.39 0 0 0 1.376 1.392c.768 0 1.392-.624 1.392-1.392zm11.488-1.856v-8.24h-1.872v8.08c0 1.232-.752 1.728-1.6 1.728-.864 0-1.632-.544-1.632-1.6h-1.856c0 2.24 1.616 3.344 3.488 3.344 1.824 0 3.472-.96 3.472-3.312zm6.304-8.24h-3.616V88h1.872v-3.936h1.744c2.336 0 3.936-1.616 3.936-3.712s-1.6-3.712-3.936-3.712zm-.016 5.664h-1.728V78.4h1.728c1.328 0 2.112.848 2.112 1.952s-.784 1.952-2.112 1.952zM124.922 88h6.832v-1.792h-4.96v-3.072h4v-1.792h-4v-2.912h4.96V76.64h-6.832zm18.645-1.44v-5.2h-4.672v1.76h2.848v2.528c-.64.528-1.696.736-2.72.736-2.592 0-4.24-1.76-4.24-4.064 0-2.256 1.68-4.064 4.064-4.064 1.376 0 2.384.496 3.12 1.232l1.28-1.328c-1.056-1.088-2.544-1.712-4.4-1.712-3.424 0-5.952 2.592-5.952 5.872 0 3.312 2.576 5.872 6.144 5.872 1.744 0 3.504-.528 4.528-1.632zm4.128 1.04c.16-.256.272-.544.272-.864a1.39 1.39 0 0 0-1.376-1.392 1.39 1.39 0 0 0-1.376 1.392 1.41 1.41 0 0 0 .784 1.264l-1.104 2.352h1.088zm9.808-10.96h-3.616V88h1.872v-3.936h1.744c2.336 0 3.936-1.616 3.936-3.712s-1.6-3.712-3.936-3.712zm-.016 5.664h-1.728V78.4h1.728c1.328 0 2.112.848 2.112 1.952s-.784 1.952-2.112 1.952zM173.199 88V76.64h-1.888v8.144l-6.384-8.144h-1.632V88h1.872v-8.176l6.4 8.176zm12.736-1.44v-5.2h-4.672v1.76h2.848v2.528c-.64.528-1.696.736-2.72.736-2.592 0-4.24-1.76-4.24-4.064 0-2.256 1.68-4.064 4.064-4.064 1.376 0 2.384.496 3.12 1.232l1.28-1.328c-1.056-1.088-2.544-1.712-4.4-1.712-3.424 0-5.952 2.592-5.952 5.872 0 3.312 2.576 5.872 6.144 5.872 1.744 0 3.504-.528 4.528-1.632zm4.128 1.04c.16-.256.272-.544.272-.864a1.39 1.39 0 0 0-1.376-1.392 1.39 1.39 0 0 0-1.376 1.392 1.41 1.41 0 0 0 .784 1.264l-1.104 2.352h1.088zm14.736.4h1.728l2.944-11.36h-1.984l-2.08 8.256-3.248-8.448-3.248 8.448-2.08-8.256h-1.968L197.79 88h1.728l2.64-6.944zm4.988-4c0 2.432 1.744 4.16 4.176 4.16 1.68 0 2.928-.72 3.648-1.856l-1.344-.96c-.416.704-1.168 1.216-2.288 1.216-1.328 0-2.384-.864-2.464-2.176h6.288l.016-.576c0-2.576-1.76-3.968-3.856-3.968-2.432 0-4.176 1.808-4.176 4.16zm4.112-2.672c1.024 0 1.952.624 2.144 1.776h-4.448c.24-1.184 1.28-1.776 2.304-1.776zm7.488 5.6c.448.64 1.424 1.232 2.576 1.232 2.192 0 3.856-1.872 3.856-4.16s-1.664-4.16-3.856-4.16c-1.152 0-2.128.592-2.576 1.232V76h-1.76v12h1.76zm4.64-2.928c0 1.44-.976 2.56-2.384 2.56-1.424 0-2.4-1.12-2.4-2.56s.976-2.56 2.4-2.56c1.408 0 2.384 1.12 2.384 2.56zm7.384-7.36h-3.616V88h1.872v-3.936h1.744c2.336 0 3.936-1.616 3.936-3.712s-1.6-3.712-3.936-3.712zm-.016 5.664h-1.728V78.4h1.728c1.328 0 2.112.848 2.112 1.952s-.784 1.952-2.112 1.952zm5.84 5.296c.16-.256.272-.544.272-.864a1.39 1.39 0 0 0-1.376-1.392 1.39 1.39 0 0 0-1.376 1.392 1.41 1.41 0 0 0 .784 1.264l-1.104 2.352h1.088zm4.352.4h1.936l1.28-2.976h5.088L253.187 88h1.952l-4.96-11.36h-1.632zm3.936-4.64l1.824-4.208 1.824 4.208zM258.947 88h1.632l4.768-11.36h-2.064l-3.52 8.496-3.536-8.496h-2.048zm7.888 0h1.872V76.64h-1.872zm4.655 0h1.873v-4.864h3.84V81.36h-3.84v-2.928h4.88V76.64h-6.752zm10.657-6.8c0-.752-.624-1.392-1.392-1.392-.752 0-1.376.64-1.376 1.392a1.39 1.39 0 0 0 1.376 1.392c.768 0 1.392-.624 1.392-1.392zm-.272 6.4c.16-.256.272-.544.272-.864a1.39 1.39 0 0 0-1.376-1.392 1.39 1.39 0 0 0-1.376 1.392 1.41 1.41 0 0 0 .784 1.264l-1.104 2.352h1.088zm16.272.4V76.64h-1.888v8.144l-6.384-8.144h-1.632V88h1.872v-8.176l6.4 8.176zm2.432-5.568h6.752V80.88h-6.752zm0 3.408h6.752v-1.536h-6.752zm9.919 2.16h1.76V76.64h-2.704l-1.344 1.744h2.288zm12.304-4.208v-2.976c0-2.56-1.712-4.368-4.128-4.368-2.4 0-4.112 1.808-4.112 4.368v2.976c0 2.56 1.712 4.368 4.112 4.368 2.416 0 4.128-1.808 4.128-4.368zm-6.48 0v-2.976c0-1.648.976-2.64 2.352-2.64 1.392 0 2.368.992 2.368 2.64v2.976c0 1.664-.976 2.64-2.368 2.64-1.376 0-2.352-.976-2.352-2.64zm16.444 0v-2.976c0-2.56-1.712-4.368-4.128-4.368-2.4 0-4.112 1.808-4.112 4.368v2.976c0 2.56 1.712 4.368 4.112 4.368 2.416 0 4.128-1.808 4.128-4.368zm-6.48 0v-2.976c0-1.648.976-2.64 2.352-2.64 1.392 0 2.368.992 2.368 2.64v2.976c0 1.664-.976 2.64-2.368 2.64-1.376 0-2.352-.976-2.352-2.64zm11.088-2.592c0-.752-.624-1.392-1.392-1.392-.752 0-1.376.64-1.376 1.392a1.39 1.39 0 0 0 1.376 1.392c.768 0 1.392-.624 1.392-1.392zm-.272 6.4c.16-.256.272-.544.272-.864a1.39 1.39 0 0 0-1.376-1.392 1.39 1.39 0 0 0-1.376 1.392 1.41 1.41 0 0 0 .784 1.264l-1.104 2.352h1.088zm6.16.4h1.76v-3.936c0-1.712.896-2.624 2.064-2.624 1.024 0 1.664.768 1.664 2.032V88h1.76v-4.816c0-2.032-1.2-3.344-3.056-3.344-1.04 0-1.952.448-2.432 1.248V80h-1.76zm17.312-4c0-2.32-1.824-4.16-4.192-4.16s-4.192 1.84-4.192 4.16 1.824 4.16 4.192 4.16 4.192-1.84 4.192-4.16zm-6.608 0c0-1.424.992-2.528 2.416-2.528 1.408 0 2.4 1.104 2.4 2.528s-.992 2.528-2.4 2.528c-1.424 0-2.416-1.104-2.416-2.528zm8.384 4h1.76v-3.904c0-1.6.912-2.448 1.92-2.448a2.74 2.74 0 0 1 .88.144v-1.808a3.443 3.443 0 0 0-.688-.064c-.912 0-1.808.592-2.112 1.504V80h-1.76zm6.08 0h1.76v-3.936c0-1.68.784-2.624 1.92-2.624.96 0 1.424.816 1.424 2.064V88h1.76v-3.936c0-1.68.768-2.624 1.904-2.624.96 0 1.424.816 1.424 2.064V88h1.76v-4.784c0-2.048-1.072-3.376-2.88-3.376-1.056 0-2.08.56-2.56 1.584-.432-.992-1.296-1.584-2.48-1.584-1.024 0-1.824.496-2.272 1.248V80h-1.76zm13.632-4c0 2.288 1.664 4.16 3.856 4.16 1.152 0 2.112-.592 2.56-1.232V88h1.76v-8h-1.76v1.072c-.448-.64-1.408-1.232-2.56-1.232-2.192 0-3.856 1.872-3.856 4.16zm6.56 0c0 1.44-.96 2.56-2.384 2.56s-2.384-1.12-2.384-2.56.96-2.56 2.384-2.56 2.384 1.12 2.384 2.56zm4 4h1.76V76h-1.76zm6.176-10.928c0-.64-.512-1.168-1.168-1.168a1.19 1.19 0 0 0-1.184 1.168c0 .656.544 1.184 1.184 1.184.656 0 1.168-.528 1.168-1.184zM396.75 88h1.76v-8h-1.76zm3.584 0h6.592v-1.6h-4.304l4.176-4.992V80h-6.4v1.6h4.128l-4.192 5.008zm7.696-4c0 2.432 1.744 4.16 4.176 4.16 1.68 0 2.928-.72 3.648-1.856l-1.344-.96c-.416.704-1.168 1.216-2.288 1.216-1.328 0-2.384-.864-2.464-2.176h6.288l.016-.576c0-2.576-1.76-3.968-3.856-3.968-2.432 0-4.176 1.808-4.176 4.16zm4.112-2.672c1.024 0 1.952.624 2.144 1.776h-4.448c.24-1.184 1.28-1.776 2.304-1.776zM417.294 84c0 2.288 1.664 4.16 3.856 4.16 1.152 0 2.112-.592 2.56-1.232V88h1.76V76h-1.76v5.072c-.448-.64-1.408-1.232-2.56-1.232-2.192 0-3.856 1.872-3.856 4.16zm6.56 0c0 1.44-.96 2.56-2.384 2.56s-2.384-1.12-2.384-2.56.96-2.56 2.384-2.56 2.384 1.12 2.384 2.56zm3.232 6.56h1.424c1.376-2.496 2.048-5.04 2.048-7.68s-.672-5.184-2.048-7.68h-1.424c1.36 2.64 1.936 5.056 1.936 7.68s-.576 5.04-1.936 7.68z"/></g><path fill="#f8f8f8" d="M0 665h960v55H0Z"/><g clip-path="url(#Q)" class="B C D J T U"><path d="M108.5 487.5h369m-369-91h369m-369-90h369m-369-90h369"/></g><g clip-path="url(#R)" class="B C D J V"><path d="M169.5 197.5v380m62-380v380m61-380v380m62-380v380m61-380v380m62-380v380"/></g><g clip-path="url(#S)" class="B C D"><path stroke="#0d0d0d" d="M108.5 577.5v-380"/></g><g clip-path="url(#T)" class="B C D"><path stroke="#111" d="M108.5 577.5h369"/></g><g clip-path="url(#U)" class="B C D E K L"><path d="M661 217l-61.445.32-61.444.541-61.444.937-30.723.715-30.722.964-30.722 1.314-30.722 1.812-30.722 2.531c-10.241 1.02-20.482 2.128-30.723 3.587s-20.481 3.041-30.722 5.168-20.481 4.425-30.722 7.593-20.482 6.571-30.722 11.412-20.482 9.995-30.723 17.636-20.481 15.629-30.722 28.208S118.241 331.246 108 347"/></g><g clip-path="url(#V)" class="B C F G M"><use xlink:href="#E"/><path d="M484.5 218.498a7.5 7.5 0 1 1-7.5-7.5 7.5 7.5 0 0 1 7.5 7.5zm-31 1a7.5 7.5 0 1 1-7.5-7.5 7.5 7.5 0 0 1 7.5 7.5zm-31 1a7.5 7.5 0 1 1-7.5-7.5 7.5 7.5 0 0 1 7.5 7.5zm-31 1a7.5 7.5 0 1 1-7.5-7.5 7.5 7.5 0 0 1 7.5 7.5zm-30 2a7.5 7.5 0 1 1-7.5-7.5 7.5 7.5 0 0 1 7.5 7.5zm-31 2a7.5 7.5 0 1 1-7.5-7.5 7.5 7.5 0 0 1 7.5 7.5zm-31 4a7.5 7.5 0 1 1-7.5-7.5 7.5 7.5 0 0 1 7.5 7.5zm-31 5a7.5 7.5 0 1 1-7.5-7.5 7.5 7.5 0 0 1 7.5 7.5zm-30 8a7.5 7.5 0 1 1-7.5-7.5 7.5 7.5 0 0 1 7.5 7.5zm-31 11a7.5 7.5 0 1 1-7.5-7.5 7.5 7.5 0 0 1 7.5 7.5zm-31 18a7.5 7.5 0 1 1-7.5-7.5 7.5 7.5 0 0 1 7.5 7.5zm-30 28a7.5 7.5 0 1 1-7.5-7.5 7.5 7.5 0 0 1 7.5 7.5zm-31 48a7.5 7.5 0 1 1-7.5-7.5 7.5 7.5 0 0 1 7.5 7.5z"/></g><g clip-path="url(#W)" class="B C D E H N"><path d="M661 246l-61.445 10.05c-20.481 3.917-40.962 8.224-61.444 13.455s-51.204 14.942-61.444 17.931l-30.723 11.048c-10.24 3.955-20.481 8.148-30.722 12.682s-20.481 9.337-30.722 14.517-20.482 10.665-30.722 16.564-20.482 12.137-30.722 18.825a660.052 660.052 0 0 0-30.723 21.302 695.701 695.701 0 0 0-30.722 23.979 752.534 752.534 0 0 0-30.722 26.842 829.944 829.944 0 0 0-30.722 29.859 932.136 932.136 0 0 0-30.723 33.003 1045.535 1045.535 0 0 0-30.722 36.259C128.481 544.973 118.241 558.772 108 572"/></g><g clip-path="url(#X)" class="B C F G O"><use xlink:href="#F"/><path d="M484.5 287.498a7.5 7.5 0 1 1-7.5-7.5 7.5 7.5 0 0 1 7.5 7.5zm-31 11a7.5 7.5 0 1 1-7.5-7.5 7.5 7.5 0 0 1 7.5 7.5zm-31 12a7.5 7.5 0 1 1-7.5-7.5 7.5 7.5 0 0 1 7.5 7.5zm-31 15a7.5 7.5 0 1 1-7.5-7.5 7.5 7.5 0 0 1 7.5 7.5zm-30 16a7.5 7.5 0 1 1-7.5-7.5 7.5 7.5 0 0 1 7.5 7.5zm-31 19a7.5 7.5 0 1 1-7.5-7.5 7.5 7.5 0 0 1 7.5 7.5zm-31 22a7.5 7.5 0 1 1-7.5-7.5 7.5 7.5 0 0 1 7.5 7.5zm-31 24a7.5 7.5 0 1 1-7.5-7.5 7.5 7.5 0 0 1 7.5 7.5zm-30 27a7.5 7.5 0 1 1-7.5-7.5 7.5 7.5 0 0 1 7.5 7.5zm-31 29a7.5 7.5 0 1 1-7.5-7.5 7.5 7.5 0 0 1 7.5 7.5zm-31 34a7.5 7.5 0 1 1-7.5-7.5 7.5 7.5 0 0 1 7.5 7.5zm-30 36a7.5 7.5 0 1 1-7.5-7.5 7.5 7.5 0 0 1 7.5 7.5zm-31 40a7.5 7.5 0 1 1-7.5-7.5 7.5 7.5 0 0 1 7.5 7.5z"/></g><g clip-path="url(#Y)" class="B C D E H P"><path d="M661 217l-61.445.35-61.444.498-61.444.729-30.723.493-30.722.613-30.722.772-30.722.987-30.722 1.281-30.723 1.696-30.722 2.298-30.722 3.205c-10.241 1.307-20.482 2.69-30.722 4.639s-20.482 3.961-30.723 7.052-20.481 6.096-30.722 11.494S118.241 267.036 108 274"/></g><g clip-path="url(#Z)" class="B C F G Q"><use xlink:href="#E"/><path d="M484.5 218.498a7.5 7.5 0 1 1-7.5-7.5 7.5 7.5 0 0 1 7.5 7.5zm-31 1a7.5 7.5 0 1 1-7.5-7.5 7.5 7.5 0 0 1 7.5 7.5zm-31 0a7.5 7.5 0 1 1-7.5-7.5 7.5 7.5 0 0 1 7.5 7.5zm-31 1a7.5 7.5 0 1 1-7.5-7.5 7.5 7.5 0 0 1 7.5 7.5zm-30 1a7.5 7.5 0 1 1-7.5-7.5 7.5 7.5 0 0 1 7.5 7.5zm-31 1a7.5 7.5 0 1 1-7.5-7.5 7.5 7.5 0 0 1 7.5 7.5zm-31 2a7.5 7.5 0 1 1-7.5-7.5 7.5 7.5 0 0 1 7.5 7.5zm-31 2a7.5 7.5 0 1 1-7.5-7.5 7.5 7.5 0 0 1 7.5 7.5zm-30 4a7.5 7.5 0 1 1-7.5-7.5 7.5 7.5 0 0 1 7.5 7.5zm-31 4a7.5 7.5 0 1 1-7.5-7.5 7.5 7.5 0 0 1 7.5 7.5zm-31 7a7.5 7.5 0 1 1-7.5-7.5 7.5 7.5 0 0 1 7.5 7.5zm-30 12a7.5 7.5 0 1 1-7.5-7.5 7.5 7.5 0 0 1 7.5 7.5zm-31 20a7.5 7.5 0 1 1-7.5-7.5 7.5 7.5 0 0 1 7.5 7.5z"/></g><g clip-path="url(#a)" class="B C D E H R"><path d="M661 216l-61.445.05-61.444.088-61.444.161-30.723.127-30.722.178-30.722.253-30.722.363-30.722.535-30.723.805-30.722 1.243-30.722 1.986c-10.241.882-20.482 1.787-30.722 3.306s-20.482 3.011-30.723 5.809-20.481 5.295-30.722 10.978S118.241 257.294 108 265"/></g><g clip-path="url(#b)" class="B C F G S"><path d="M484.5 216.498a7.5 7.5 0 1 1-7.5-7.5 7.5 7.5 0 0 1 7.5 7.5z"/><path d="M484.5 216.498a7.5 7.5 0 1 1-7.5-7.5 7.5 7.5 0 0 1 7.5 7.5zm-31 0a7.5 7.5 0 1 1-7.5-7.5 7.5 7.5 0 0 1 7.5 7.5zm-31 0a7.5 7.5 0 1 1-7.5-7.5 7.5 7.5 0 0 1 7.5 7.5zm-31 0a7.5 7.5 0 1 1-7.5-7.5 7.5 7.5 0 0 1 7.5 7.5zm-30 1a7.5 7.5 0 1 1-7.5-7.5 7.5 7.5 0 0 1 7.5 7.5zm-31 0a7.5 7.5 0 1 1-7.5-7.5 7.5 7.5 0 0 1 7.5 7.5zm-31 1a7.5 7.5 0 1 1-7.5-7.5 7.5 7.5 0 0 1 7.5 7.5zm-31 1a7.5 7.5 0 1 1-7.5-7.5 7.5 7.5 0 0 1 7.5 7.5zm-30 2a7.5 7.5 0 1 1-7.5-7.5 7.5 7.5 0 0 1 7.5 7.5zm-31 4a7.5 7.5 0 1 1-7.5-7.5 7.5 7.5 0 0 1 7.5 7.5zm-31 5a7.5 7.5 0 1 1-7.5-7.5 7.5 7.5 0 0 1 7.5 7.5zm-30 11a7.5 7.5 0 1 1-7.5-7.5 7.5 7.5 0 0 1 7.5 7.5zm-31 23a7.5 7.5 0 1 1-7.5-7.5 7.5 7.5 0 0 1 7.5 7.5z"/></g><g class="I"><g clip-path="url(#c)"><path d="M68.756 577.792v-2.976c0-2.56-1.712-4.368-4.128-4.368-2.4 0-4.112 1.808-4.112 4.368v2.976c0 2.56 1.712 4.368 4.112 4.368 2.416 0 4.128-1.808 4.128-4.368zm-6.48 0v-2.976c0-1.648.976-2.64 2.352-2.64 1.392 0 2.368.992 2.368 2.64v2.976c0 1.664-.976 2.64-2.368 2.64-1.376 0-2.352-.976-2.352-2.64zm10.704 2.944c0-.752-.624-1.392-1.392-1.392-.752 0-1.376.64-1.376 1.392a1.39 1.39 0 0 0 1.376 1.392c.768 0 1.392-.624 1.392-1.392zm9.104-2.416c0-2.128-1.744-3.648-3.536-3.648h-.176l3.2-4.032h-2.208l-3.792 4.752c-.752.992-1.28 1.776-1.28 2.944 0 2.144 1.584 3.824 3.888 3.824 2.32 0 3.904-1.68 3.904-3.84zm-6.016.016c0-1.168.896-2.128 2.112-2.128s2.128.96 2.128 2.128c0 1.184-.912 2.128-2.128 2.128s-2.112-.944-2.112-2.128zm15.808-.544v-2.976c0-2.56-1.712-4.368-4.128-4.368-2.4 0-4.112 1.808-4.112 4.368v2.976c0 2.56 1.712 4.368 4.112 4.368 2.416 0 4.128-1.808 4.128-4.368zm-6.48 0v-2.976c0-1.648.976-2.64 2.352-2.64 1.392 0 2.368.992 2.368 2.64v2.976c0 1.664-.976 2.64-2.368 2.64-1.376 0-2.352-.976-2.352-2.64z"/></g><g clip-path="url(#d)"><path d="M69.376 487.792v-2.976c0-2.56-1.712-4.368-4.128-4.368-2.4 0-4.112 1.808-4.112 4.368v2.976c0 2.56 1.712 4.368 4.112 4.368 2.416 0 4.128-1.808 4.128-4.368zm-6.48 0v-2.976c0-1.648.976-2.64 2.352-2.64 1.392 0 2.368.992 2.368 2.64v2.976c0 1.664-.976 2.64-2.368 2.64-1.376 0-2.352-.976-2.352-2.64zm10.704 2.944c0-.752-.624-1.392-1.392-1.392-.752 0-1.376.64-1.376 1.392a1.39 1.39 0 0 0 1.376 1.392c.768 0 1.392-.624 1.392-1.392zM77.184 492l5.328-9.856v-1.504h-7.68v1.712h5.584L75.2 492Zm14.688-4.208v-2.976c0-2.56-1.712-4.368-4.128-4.368-2.4 0-4.112 1.808-4.112 4.368v2.976c0 2.56 1.712 4.368 4.112 4.368 2.416 0 4.128-1.808 4.128-4.368zm-6.48 0v-2.976c0-1.648.976-2.64 2.352-2.64 1.392 0 2.368.992 2.368 2.64v2.976c0 1.664-.976 2.64-2.368 2.64-1.376 0-2.352-.976-2.352-2.64z"/></g><g clip-path="url(#e)"><path d="M68.516 397.792v-2.976c0-2.56-1.712-4.368-4.128-4.368-2.4 0-4.112 1.808-4.112 4.368v2.976c0 2.56 1.712 4.368 4.112 4.368 2.416 0 4.128-1.808 4.128-4.368zm-6.48 0v-2.976c0-1.648.976-2.64 2.352-2.64 1.392 0 2.368.992 2.368 2.64v2.976c0 1.664-.976 2.64-2.368 2.64-1.376 0-2.352-.976-2.352-2.64zm10.704 2.944c0-.752-.624-1.392-1.392-1.392-.752 0-1.376.64-1.376 1.392a1.39 1.39 0 0 0 1.376 1.392c.768 0 1.392-.624 1.392-1.392zm9.28-2.176c0-1.312-.592-2.304-1.616-2.864.672-.528 1.056-1.328 1.056-2.256 0-1.728-1.36-2.992-3.36-2.992-1.952 0-3.344 1.264-3.344 2.992 0 .928.384 1.728 1.072 2.256-1.024.56-1.632 1.552-1.632 2.864 0 2.096 1.664 3.6 3.904 3.6 2.288 0 3.92-1.504 3.92-3.6zm-5.552-5.008c0-.848.672-1.504 1.632-1.504 1.008 0 1.648.656 1.648 1.504 0 .816-.64 1.504-1.648 1.504-.96 0-1.632-.688-1.632-1.504zm-.48 4.976c0-1.088.816-1.984 2.128-1.984 1.328 0 2.112.896 2.112 1.984 0 1.072-.784 1.984-2.128 1.984-1.296 0-2.112-.912-2.112-1.984zm15.888-.736v-2.976c0-2.56-1.712-4.368-4.128-4.368-2.4 0-4.112 1.808-4.112 4.368v2.976c0 2.56 1.712 4.368 4.112 4.368 2.416 0 4.128-1.808 4.128-4.368zm-6.48 0v-2.976c0-1.648.976-2.64 2.352-2.64 1.392 0 2.368.992 2.368 2.64v2.976c0 1.664-.976 2.64-2.368 2.64-1.376 0-2.352-.976-2.352-2.64z"/></g><g clip-path="url(#f)"><path d="M68.756 306.792v-2.976c0-2.56-1.712-4.368-4.128-4.368-2.4 0-4.112 1.808-4.112 4.368v2.976c0 2.56 1.712 4.368 4.112 4.368 2.416 0 4.128-1.808 4.128-4.368zm-6.48 0v-2.976c0-1.648.976-2.64 2.352-2.64 1.392 0 2.368.992 2.368 2.64v2.976c0 1.664-.976 2.64-2.368 2.64-1.376 0-2.352-.976-2.352-2.64zm10.704 2.944c0-.752-.624-1.392-1.392-1.392-.752 0-1.376.64-1.376 1.392a1.39 1.39 0 0 0 1.376 1.392c.768 0 1.392-.624 1.392-1.392zM74.692 311H76.9l3.808-4.768c.768-.992 1.296-1.776 1.296-2.96 0-2.128-1.6-3.824-3.904-3.824s-3.904 1.696-3.904 3.84c0 2.128 1.744 3.648 3.552 3.648h.176zm1.296-7.728c0-1.168.896-2.128 2.112-2.128s2.112.96 2.112 2.128c0 1.184-.896 2.144-2.112 2.144s-2.112-.96-2.112-2.144zm15.712 3.52v-2.976c0-2.56-1.712-4.368-4.128-4.368-2.4 0-4.112 1.808-4.112 4.368v2.976c0 2.56 1.712 4.368 4.112 4.368 2.416 0 4.128-1.808 4.128-4.368zm-6.48 0v-2.976c0-1.648.976-2.64 2.352-2.64 1.392 0 2.368.992 2.368 2.64v2.976c0 1.664-.976 2.64-2.368 2.64-1.376 0-2.352-.976-2.352-2.64z"/></g><g clip-path="url(#g)"><use xlink:href="#G"/></g><g clip-path="url(#h)"><use xlink:href="#H"/></g><g clip-path="url(#i)"><use xlink:href="#I"/></g><g clip-path="url(#j)"><use xlink:href="#J"/></g><g clip-path="url(#k)"><use xlink:href="#K"/></g><g clip-path="url(#l)"><use xlink:href="#L"/></g><g clip-path="url(#m)"><use xlink:href="#M"/></g><g clip-path="url(#n)"><path d="m470.728 604 5.328-9.856v-1.504h-7.68v1.712h5.584L468.744 604Zm14.688-4.208v-2.976c0-2.56-1.712-4.368-4.128-4.368-2.4 0-4.112 1.808-4.112 4.368v2.976c0 2.56 1.712 4.368 4.112 4.368 2.416 0 4.128-1.808 4.128-4.368zm-6.48 0v-2.976c0-1.648.976-2.64 2.352-2.64 1.392 0 2.368.992 2.368 2.64v2.976c0 1.664-.976 2.64-2.368 2.64-1.376 0-2.352-.976-2.352-2.64z"/></g></g><g fill="#68788e"><g clip-path="url(#o)"><path d="M27.333 445.608v-1.872h-4.992v-.848l4.992-4.16v-2.304l-5.104 4.224c-.384-1.632-1.424-2.576-3.024-2.576-1.872 0-3.232 1.328-3.232 3.44v4.096zm-6.624-1.872h-3.008v-2c0-1.104.528-1.792 1.504-1.792s1.504.688 1.504 1.792zm2.624-7.376c2.432 0 4.16-1.744 4.16-4.176 0-1.68-.72-2.928-1.856-3.648l-.96 1.344c.704.416 1.216 1.168 1.216 2.288 0 1.328-.864 2.384-2.176 2.464v-6.288a7.95 7.95 0 0 0-.576-.016c-2.576 0-3.968 1.76-3.968 3.856 0 2.432 1.808 4.176 4.16 4.176zm-2.672-4.112c0-1.024.624-1.952 1.776-2.144v4.448c-1.184-.24-1.776-1.28-1.776-2.304zm6.672-5.728v-1.76h-12v1.76zm-4-3.552c2.288 0 4.16-1.664 4.16-3.856 0-1.152-.592-2.112-1.232-2.56h1.072v-1.76h-8v1.76h1.072c-.64.448-1.232 1.408-1.232 2.56 0 2.192 1.872 3.856 4.16 3.856zm0-6.56c1.44 0 2.56.96 2.56 2.384s-1.12 2.384-2.56 2.384-2.56-.96-2.56-2.384 1.12-2.384 2.56-2.384zm3.904-8.784H25.67c.096.256.16.608.16.944 0 .912-.368 1.344-1.36 1.344h-3.568v-2.288h-1.568v2.288H17.11v1.76h2.224v1.664h1.568v-1.664h3.856c1.808 0 2.656-1.2 2.656-2.736 0-.544-.064-.96-.176-1.312zm-10.832-3.712c-.64 0-1.168.512-1.168 1.168a1.19 1.19 0 0 0 1.168 1.184c.656 0 1.184-.544 1.184-1.184 0-.656-.528-1.168-1.184-1.168zm10.928 2.048v-1.76h-8v1.76zm0-6.624v-1.552l-8-3.632v1.968l5.6 2.448-5.6 2.432v1.952zm-4-5.648c2.432 0 4.16-1.744 4.16-4.176 0-1.68-.72-2.928-1.856-3.648l-.96 1.344c.704.416 1.216 1.168 1.216 2.288 0 1.328-.864 2.384-2.176 2.464v-6.288a7.95 7.95 0 0 0-.576-.016c-2.576 0-3.968 1.76-3.968 3.856 0 2.432 1.808 4.176 4.16 4.176zm-2.672-4.112c0-1.024.624-1.952 1.776-2.144v4.448c-1.184-.24-1.776-1.28-1.776-2.304zm10.016-15.328v-1.76H19.333v1.76h1.072c-.64.448-1.232 1.408-1.232 2.56 0 2.192 1.872 3.856 4.16 3.856s4.16-1.664 4.16-3.856c0-1.152-.592-2.112-1.232-2.56zm-7.344-.144c1.44 0 2.56.96 2.56 2.384s-1.12 2.384-2.56 2.384-2.56-.96-2.56-2.384 1.12-2.384 2.56-2.384zm.784-3.888c2.048 0 3.376-1.136 3.376-2.976 0-1.024-.448-1.872-1.248-2.336h1.088v-1.76h-8v1.76h3.936c1.712 0 2.624.816 2.624 1.952 0 1.024-.784 1.6-2.064 1.6h-4.496v1.76zm-.784-8.864c2.288 0 4.16-1.664 4.16-3.856 0-1.152-.592-2.112-1.232-2.56h1.072v-1.76h-8v1.76h1.072c-.64.448-1.232 1.408-1.232 2.56 0 2.192 1.872 3.856 4.16 3.856zm0-6.56c1.44 0 2.56.96 2.56 2.384s-1.12 2.384-2.56 2.384-2.56-.96-2.56-2.384 1.12-2.384 2.56-2.384zm4-4v-1.76h-12v1.76zm-10.928-6.176c-.64 0-1.168.512-1.168 1.168a1.19 1.19 0 0 0 1.168 1.184c.656 0 1.184-.544 1.184-1.184 0-.656-.528-1.168-1.184-1.168zm10.928 2.048v-1.76h-8v1.76zm-.096-8.912H25.67c.096.256.16.608.16.944 0 .912-.368 1.344-1.36 1.344h-3.568v-2.288h-1.568v2.288H17.11v1.76h2.224v1.664h1.568V341.8h3.856c1.808 0 2.656-1.2 2.656-2.736 0-.544-.064-.96-.176-1.312zm3.44-4.224l-11.344-5.136v1.952l5.664 2.448-5.664 2.464v1.936l7.568-3.44 3.776 1.712z"/></g><g clip-path="url(#p)"><path d="M232.212 644h1.872v-4.992h.848l4.16 4.992h2.304l-4.224-5.104c1.632-.384 2.576-1.424 2.576-3.024 0-1.872-1.328-3.232-3.44-3.232h-4.096zm1.872-6.624v-3.008h2c1.104 0 1.792.528 1.792 1.504s-.688 1.504-1.792 1.504zM241.46 640c0 2.432 1.744 4.16 4.176 4.16 1.68 0 2.928-.72 3.648-1.856l-1.344-.96c-.416.704-1.168 1.216-2.288 1.216-1.328 0-2.384-.864-2.464-2.176h6.288l.016-.576c0-2.576-1.76-3.968-3.856-3.968-2.432 0-4.176 1.808-4.176 4.16zm4.112-2.672c1.024 0 1.952.624 2.144 1.776h-4.448c.24-1.184 1.28-1.776 2.304-1.776zM251.3 644h1.76v-12h-1.76zm3.552-4c0 2.288 1.664 4.16 3.856 4.16 1.152 0 2.112-.592 2.56-1.232V644h1.76v-8h-1.76v1.072c-.448-.64-1.408-1.232-2.56-1.232-2.192 0-3.856 1.872-3.856 4.16zm6.56 0c0 1.44-.96 2.56-2.384 2.56s-2.384-1.12-2.384-2.56.96-2.56 2.384-2.56 2.384 1.12 2.384 2.56zm8.784 3.904v-1.568c-.256.096-.608.16-.944.16-.912 0-1.344-.368-1.344-1.36v-3.568h2.288V636h-2.288v-2.224h-1.76V636h-1.664v1.568h1.664v3.856c0 1.808 1.2 2.656 2.736 2.656.544 0 .96-.064 1.312-.176zm3.712-10.832c0-.64-.512-1.168-1.168-1.168a1.19 1.19 0 0 0-1.184 1.168c0 .656.544 1.184 1.184 1.184.656 0 1.168-.528 1.168-1.184zM271.86 644h1.76v-8h-1.76zm6.624 0h1.552l3.632-8H281.7l-2.448 5.6-2.432-5.6h-1.952zm5.648-4c0 2.432 1.744 4.16 4.176 4.16 1.68 0 2.928-.72 3.648-1.856l-1.344-.96c-.416.704-1.168 1.216-2.288 1.216-1.328 0-2.384-.864-2.464-2.176h6.288l.016-.576c0-2.576-1.76-3.968-3.856-3.968-2.432 0-4.176 1.808-4.176 4.16zm4.112-2.672c1.024 0 1.952.624 2.144 1.776h-4.448c.24-1.184 1.28-1.776 2.304-1.776zm14.928 4.352c0-1.312-.832-2.016-2.24-2.432l-.816-.24c-.784-.224-.96-.56-.96-.944 0-.48.544-.752 1.072-.752.656 0 1.168.32 1.52.816l1.216-.928c-.56-.88-1.504-1.36-2.704-1.36-1.6 0-2.848.864-2.864 2.288-.016 1.184.704 2.064 2.096 2.448l.704.192c.96.288 1.232.56 1.232 1.024 0 .56-.528.848-1.152.848-.816 0-1.6-.4-1.92-1.104l-1.296.928c.576 1.136 1.792 1.696 3.216 1.696 1.648 0 2.896-.944 2.896-2.48zm3.872-8.608c0-.64-.512-1.168-1.168-1.168a1.19 1.19 0 0 0-1.184 1.168c0 .656.544 1.184 1.184 1.184.656 0 1.168-.528 1.168-1.184zM304.996 644h1.76v-8h-1.76zm3.584 0h6.592v-1.6h-4.304l4.176-4.992V636h-6.4v1.6h4.128l-4.192 5.008zm7.696-4c0 2.432 1.744 4.16 4.176 4.16 1.68 0 2.928-.72 3.648-1.856l-1.344-.96c-.416.704-1.168 1.216-2.288 1.216-1.328 0-2.384-.864-2.464-2.176h6.288l.016-.576c0-2.576-1.76-3.968-3.856-3.968-2.432 0-4.176 1.808-4.176 4.16zm4.112-2.672c1.024 0 1.952.624 2.144 1.776h-4.448c.24-1.184 1.28-1.776 2.304-1.776zm9.664 9.232h3.232v-1.36h-1.712v-12.64h1.712v-1.36h-3.232zm10.448-10.896a3.158 3.158 0 0 0-3.152-3.152 3.148 3.148 0 0 0-3.152 3.152 3.158 3.158 0 0 0 3.152 3.152 3.169 3.169 0 0 0 3.152-3.152zM337.076 644h1.856l7.2-11.36h-1.856zm-1.328-8.336c0-.88.704-1.616 1.6-1.616s1.6.736 1.6 1.616-.704 1.616-1.6 1.616-1.6-.736-1.6-1.616zm13.264 5.312a3.158 3.158 0 0 0-3.152-3.152 3.148 3.148 0 0 0-3.152 3.152 3.158 3.158 0 0 0 3.152 3.152 3.169 3.169 0 0 0 3.152-3.152zm-4.768 0c0-.88.72-1.616 1.616-1.616.88 0 1.584.736 1.584 1.616s-.704 1.616-1.584 1.616a1.622 1.622 0 0 1-1.616-1.616zm8.912 5.584V631.2h-3.232v1.36h1.712v12.64h-1.712v1.36z"/></g></g><g clip-path="url(#q)" class="I"><path d="M259.244 131.127c0-2.603-2.033-4.617-4.75-4.617h-4.579V140h3.021v-4.275h1.558c2.717 0 4.75-1.995 4.75-4.598zm-2.926 0c0 .988-.779 1.767-1.862 1.767h-1.52v-3.534h1.52c1.083 0 1.862.76 1.862 1.767zm4.446 8.873h2.869v-4.617c0-1.71.836-2.489 1.919-2.489 1.026 0 1.539.798 1.539 2.109V140h2.869v-5.491c0-2.489-1.349-4.218-3.686-4.218-1.235 0-2.185.532-2.641 1.178v-5.719h-2.869zm15.694.209c2.736 0 4.997-2.166 4.997-4.959s-2.261-4.959-4.997-4.959-4.997 2.166-4.997 4.959 2.261 4.959 4.997 4.959zm0-2.679c-1.197 0-2.109-.931-2.109-2.28s.912-2.28 2.109-2.28 2.109.931 2.109 2.28-.912 2.28-2.109 2.28zm11.628 2.584c.76 0 1.292-.076 1.71-.19v-2.546c-.304.114-.608.171-1.045.171-1.14 0-1.615-.475-1.615-1.615v-2.945h2.66V130.5h-2.66v-2.641h-2.87v2.641h-1.9v2.489h1.9v3.534c0 2.413 1.71 3.591 3.82 3.591zm7.087.095c2.736 0 4.997-2.166 4.997-4.959s-2.261-4.959-4.997-4.959-4.997 2.166-4.997 4.959 2.26 4.959 4.997 4.959zm0-2.679c-1.197 0-2.11-.931-2.11-2.28s.913-2.28 2.11-2.28 2.109.931 2.109 2.28-.912 2.28-2.11 2.28zm10.203 2.679c2.09 0 3.705-1.311 3.705-3.154 0-1.71-1.064-2.546-2.793-3.002l-.874-.228c-.722-.19-.798-.475-.798-.684 0-.361.418-.494.779-.494.55 0 1.064.209 1.5.76l1.863-1.539c-.76-1.045-1.881-1.577-3.344-1.577-2.071 0-3.61 1.159-3.648 2.926-.038 1.52.893 2.679 2.698 3.116l.627.152c.988.247 1.159.418 1.159.741 0 .38-.437.532-.874.532-.874 0-1.615-.361-2.052-.988l-1.9 1.729c.874 1.159 2.299 1.71 3.952 1.71z"/></g><g clip-path="url(#r)" class="B C D E K L"><path d="M144 167h26"/></g><g clip-path="url(#s)" class="B C F G M"><use xlink:href="#N"/></g><g clip-path="url(#t)" class="I"><path d="M178.952 168.27v-7.21h-1.638v7.07c0 1.078-.658 1.512-1.4 1.512-.756 0-1.428-.476-1.428-1.4h-1.624c0 1.96 1.414 2.926 3.052 2.926 1.596 0 3.038-.84 3.038-2.898zm5.516-7.21h-3.164V171h1.638v-3.444h1.526c2.044 0 3.444-1.414 3.444-3.248s-1.4-3.248-3.444-3.248zm-.014 4.956h-1.512V162.6h1.512c1.162 0 1.848.742 1.848 1.708s-.686 1.708-1.848 1.708zm5.082 4.984h5.978v-1.568h-4.34v-2.688h3.5v-1.568h-3.5v-2.548h4.34v-1.568h-5.978zm16.31-1.26v-4.55h-4.088v1.54h2.492v2.212c-.56.462-1.484.644-2.38.644-2.268 0-3.71-1.54-3.71-3.556 0-1.974 1.47-3.556 3.556-3.556 1.204 0 2.086.434 2.73 1.078l1.12-1.162c-.924-.952-2.226-1.498-3.85-1.498-2.996 0-5.208 2.268-5.208 5.138 0 2.898 2.254 5.138 5.376 5.138 1.526 0 3.066-.462 3.962-1.428z"/></g><g clip-path="url(#u)" class="B C D E H N"><path d="M221 167h26"/></g><g clip-path="url(#v)" class="B C F G O"><path d="M237 167.5a3.5 3.5 0 1 1-7 0 3.5 3.5 0 0 1 7 0Z"/></g><g clip-path="url(#w)" class="I"><path d="M253.764 161.06H250.6V171h1.638v-3.444h1.526c2.044 0 3.444-1.414 3.444-3.248s-1.4-3.248-3.444-3.248zm-.014 4.956h-1.512V162.6h1.512c1.162 0 1.848.742 1.848 1.708s-.686 1.708-1.848 1.708zM267.498 171v-9.94h-1.652v7.126l-5.586-7.126h-1.428V171h1.638v-7.154l5.6 7.154zm11.144-1.26v-4.55h-4.088v1.54h2.492v2.212c-.56.462-1.484.644-2.38.644-2.268 0-3.71-1.54-3.71-3.556 0-1.974 1.47-3.556 3.556-3.556 1.204 0 2.086.434 2.73 1.078l1.12-1.162c-.924-.952-2.226-1.498-3.85-1.498-2.996 0-5.208 2.268-5.208 5.138 0 2.898 2.254 5.138 5.376 5.138 1.526 0 3.066-.462 3.962-1.428z"/></g><g clip-path="url(#x)" class="B C D E H P"><path d="M294 167h25"/></g><g clip-path="url(#y)" class="B C F G Q"><path d="M310 167.5a3.5 3.5 0 1 1-7 0 3.5 3.5 0 0 1 7 0Z"/></g><g clip-path="url(#z)" class="I"><path d="M330.896 171h1.512l2.576-9.94h-1.736l-1.82 7.224-2.842-7.392-2.842 7.392-1.82-7.224h-1.722l2.562 9.94h1.512l2.31-6.076zm4.41-3.5c0 2.128 1.526 3.64 3.654 3.64 1.47 0 2.562-.63 3.192-1.624l-1.176-.84c-.364.616-1.022 1.064-2.002 1.064-1.162 0-2.086-.756-2.156-1.904h5.502l.014-.504c0-2.254-1.54-3.472-3.374-3.472-2.128 0-3.654 1.582-3.654 3.64zm3.598-2.338c.896 0 1.708.546 1.876 1.554h-3.892c.21-1.036 1.12-1.554 2.016-1.554zm6.552 4.9c.392.56 1.246 1.078 2.254 1.078 1.918 0 3.374-1.638 3.374-3.64s-1.456-3.64-3.374-3.64c-1.008 0-1.862.518-2.254 1.078V160.5h-1.54V171h1.54zm4.06-2.562c0 1.26-.854 2.24-2.086 2.24-1.246 0-2.1-.98-2.1-2.24s.854-2.24 2.1-2.24c1.232 0 2.086.98 2.086 2.24zm6.398-6.44h-3.164V171h1.638v-3.444h1.526c2.044 0 3.444-1.414 3.444-3.248s-1.4-3.248-3.444-3.248zm-.014 4.956h-1.512V162.6h1.512c1.162 0 1.848.742 1.848 1.708s-.686 1.708-1.848 1.708z"/></g><g clip-path="url(#AA)" class="B C D E H R"><path d="M375 167h25"/></g><g clip-path="url(#AB)" class="B C F G S"><path d="M391 167.5a3.5 3.5 0 1 1-7 0 3.5 3.5 0 0 1 7 0Z"/></g><g clip-path="url(#AC)" class="I"><use xlink:href="#O"/></g><path fill="#335ab9" d="M0 0h961v12H0Z"/><path fill="#64748b" d="M32.195 696.144c.688 1.216 2.208 2.048 4.048 2.048 2.224 0 3.792-1.296 3.792-3.28.016-1.696-.992-2.704-2.672-3.328l-1.152-.432c-1.168-.432-1.728-.8-1.728-1.632 0-.816.832-1.312 1.792-1.312.88 0 1.584.384 2.16 1.056L39.73 688c-.832-.992-2.032-1.552-3.44-1.552-2.112 0-3.696 1.216-3.696 3.2 0 1.552.88 2.544 2.688 3.2l1.248.448c1.088.4 1.616.928 1.616 1.728 0 .848-.784 1.408-1.84 1.408-1.104 0-2.048-.544-2.64-1.456zM49.667 694c0-2.32-1.824-4.16-4.192-4.16s-4.192 1.84-4.192 4.16 1.824 4.16 4.192 4.16 4.192-1.84 4.192-4.16zm-6.608 0c0-1.424.992-2.528 2.416-2.528 1.408 0 2.4 1.104 2.4 2.528s-.992 2.528-2.4 2.528c-1.424 0-2.416-1.104-2.416-2.528zm8.271.784c0 2.048 1.137 3.376 2.977 3.376 1.024 0 1.872-.448 2.336-1.248V698h1.76v-8h-1.76v3.936c0 1.712-.816 2.624-1.952 2.624-1.024 0-1.6-.784-1.6-2.064V690h-1.76zM60.77 698h1.76v-3.904c0-1.6.913-2.448 1.92-2.448.32 0 .577.048.88.144v-1.808a3.443 3.443 0 0 0-.687-.064c-.912 0-1.808.592-2.112 1.504V690h-1.76zm13.169-2.048l-1.536-.832c-.384.816-1.168 1.408-2.192 1.408-1.424 0-2.432-1.104-2.432-2.528s1.008-2.528 2.432-2.528c1.024 0 1.808.592 2.192 1.408l1.536-.832c-.688-1.328-2.08-2.208-3.728-2.208-2.4 0-4.224 1.792-4.224 4.16s1.824 4.16 4.224 4.16c1.648 0 3.04-.88 3.728-2.208zM74.995 694c0 2.432 1.744 4.16 4.176 4.16 1.68 0 2.928-.72 3.648-1.856l-1.344-.96c-.416.704-1.168 1.216-2.288 1.216-1.328 0-2.384-.864-2.464-2.176h6.288l.016-.576c0-2.576-1.76-3.968-3.856-3.968-2.432 0-4.176 1.808-4.176 4.16zm4.112-2.672c1.024 0 1.952.624 2.144 1.776h-4.448c.24-1.184 1.28-1.776 2.304-1.776zm8.223-.128c0-.752-.623-1.392-1.391-1.392-.752 0-1.376.64-1.376 1.392a1.39 1.39 0 0 0 1.376 1.392c.768 0 1.392-.624 1.392-1.392zm0 5.536c0-.752-.623-1.392-1.391-1.392-.752 0-1.376.64-1.376 1.392a1.39 1.39 0 0 0 1.376 1.392c.768 0 1.392-.624 1.392-1.392zm9.665-10.096h-3.616V698h1.872v-3.936h1.744c2.336 0 3.936-1.616 3.936-3.712s-1.6-3.712-3.936-3.712zm-.016 5.664H95.25V688.4h1.728c1.328 0 2.112.848 2.112 1.952s-.784 1.952-2.112 1.952zm5.536 5.696h1.76v-3.936c0-1.712.896-2.624 2.064-2.624 1.024 0 1.664.768 1.664 2.032V698h1.76v-4.816c0-2.032-1.2-3.344-3.056-3.344-1.04 0-1.952.448-2.432 1.248V686h-1.76zm17.312-4c0-2.32-1.824-4.16-4.192-4.16s-4.192 1.84-4.192 4.16 1.824 4.16 4.192 4.16 4.192-1.84 4.192-4.16zm-6.608 0c0-1.424.992-2.528 2.416-2.528 1.408 0 2.4 1.104 2.4 2.528s-.992 2.528-2.4 2.528c-1.424 0-2.416-1.104-2.416-2.528zm13.008 3.904v-1.568c-.256.096-.608.16-.944.16-.912 0-1.344-.368-1.344-1.36v-3.568h2.288V690h-2.288v-2.224h-1.76V690h-1.664v1.568h1.664v3.856c0 1.808 1.2 2.656 2.736 2.656.544 0 .96-.064 1.312-.176zm1.552-3.12c0 2.048 1.136 3.376 2.976 3.376 1.024 0 1.872-.448 2.336-1.248V698h1.76v-8h-1.76v3.936c0 1.712-.816 2.624-1.952 2.624-1.024 0-1.6-.784-1.6-2.064V690h-1.76zm14.224 3.12v-1.568c-.256.096-.608.16-.944.16-.912 0-1.344-.368-1.344-1.36v-3.568h2.288V690h-2.288v-2.224h-1.76V690h-1.664v1.568h1.664v3.856c0 1.808 1.2 2.656 2.736 2.656.544 0 .96-.064 1.312-.176zm9.36-3.904c0-2.32-1.824-4.16-4.192-4.16s-4.192 1.84-4.192 4.16 1.824 4.16 4.192 4.16 4.192-1.84 4.192-4.16zm-6.608 0c0-1.424.992-2.528 2.416-2.528 1.408 0 2.4 1.104 2.4 2.528s-.992 2.528-2.4 2.528c-1.424 0-2.416-1.104-2.416-2.528zm8.384 4h1.76v-3.904c0-1.6.912-2.448 1.92-2.448a2.74 2.74 0 0 1 .88.144v-1.808a3.443 3.443 0 0 0-.688-.064c-.912 0-1.808.592-2.112 1.504V690h-1.76zm8.128-10.928c0-.64-.512-1.168-1.168-1.168a1.19 1.19 0 0 0-1.184 1.168c0 .656.544 1.184 1.184 1.184.656 0 1.168-.528 1.168-1.184zM159.219 698h1.76v-8h-1.76zm3.551-4c0 2.288 1.665 4.16 3.857 4.16 1.152 0 2.112-.592 2.56-1.232V698h1.76v-8h-1.76v1.072c-.448-.64-1.408-1.232-2.56-1.232-2.192 0-3.856 1.872-3.856 4.16zm6.56 0c0 1.44-.96 2.56-2.383 2.56s-2.384-1.12-2.384-2.56.96-2.56 2.384-2.56 2.384 1.12 2.384 2.56zm4 4h1.76v-12h-1.76zm6.449-1.264c0-.752-.624-1.392-1.392-1.392-.752 0-1.376.64-1.376 1.392a1.39 1.39 0 0 0 1.376 1.392c.768 0 1.392-.624 1.392-1.392zm9.2-.784l-1.536-.832c-.384.816-1.168 1.408-2.192 1.408-1.424 0-2.432-1.104-2.432-2.528s1.008-2.528 2.432-2.528c1.024 0 1.808.592 2.192 1.408l1.536-.832c-.688-1.328-2.08-2.208-3.728-2.208-2.4 0-4.224 1.792-4.224 4.16s1.824 4.16 4.224 4.16c1.648 0 3.04-.88 3.728-2.208zm9.424-1.952c0-2.32-1.824-4.16-4.192-4.16s-4.193 1.84-4.193 4.16 1.824 4.16 4.192 4.16 4.192-1.84 4.192-4.16zm-6.608 0c0-1.424.992-2.528 2.416-2.528 1.407 0 2.4 1.104 2.4 2.528s-.992 2.528-2.4 2.528c-1.425 0-2.417-1.104-2.417-2.528zm8.383 4h1.76v-3.936c0-1.68.784-2.624 1.92-2.624.96 0 1.424.816 1.424 2.064V698h1.76v-3.936c0-1.68.768-2.624 1.904-2.624.96 0 1.424.816 1.424 2.064V698h1.76v-4.784c0-2.048-1.072-3.376-2.88-3.376-1.056 0-2.08.56-2.56 1.584-.432-.992-1.296-1.584-2.48-1.584-1.024 0-1.824.496-2.272 1.248V690h-1.76z"/><g clip-path="url(#AD)" class="B C D J T U"><path d="M561.5 504.5h374m-374-73h374m-374-72h374m-374-73h374m-374-73h374"/></g><g clip-path="url(#AE)" class="B C D J V"><path d="M636.5 195.5v382m75-382v382m75-382v382m74-382v382m75-382v382"/></g><g clip-path="url(#AF)" class="B C D"><path stroke="#0d0d0d" d="M561.5 577.5v-382"/></g><g clip-path="url(#AG)" class="B C D"><path stroke="#111" d="M561.5 577.5h374"/></g><g clip-path="url(#AH)" class="B C D E K L"><path d="M1235 219l-74.89 1.422-74.89 1.924-74.89 2.68-37.441 1.748-37.445 2.118-37.444 2.6-37.444 3.236-37.445 4.092c-12.481 1.561-24.963 3.236-37.444 5.278s-24.963 4.227-37.445 6.97-24.963 5.667-37.444 9.482-24.963 7.844-37.445 13.405-24.963 11.293-37.444 19.961-24.963 17.029-37.445 32.043S573.482 364.653 561 384"/></g><g clip-path="url(#AI)" class="F M B C G"><path d="M942.5 229.498a7.5 7.5 0 1 1-7.5-7.5 7.5 7.5 0 0 1 7.5 7.5zm-37 2a7.5 7.5 0 1 1-7.5-7.5 7.5 7.5 0 0 1 7.5 7.5zm-38 4a7.5 7.5 0 1 1-7.5-7.5 7.5 7.5 0 0 1 7.5 7.5zm-37 4a7.5 7.5 0 1 1-7.5-7.5 7.5 7.5 0 0 1 7.5 7.5zm-37 5a7.5 7.5 0 1 1-7.5-7.5 7.5 7.5 0 0 1 7.5 7.5zm-38 7a7.5 7.5 0 1 1-7.5-7.5 7.5 7.5 0 0 1 7.5 7.5zm-37 9a7.5 7.5 0 1 1-7.5-7.5 7.5 7.5 0 0 1 7.5 7.5zm-38 14a7.5 7.5 0 1 1-7.5-7.5 7.5 7.5 0 0 1 7.5 7.5zm-37 20a7.5 7.5 0 1 1-7.5-7.5 7.5 7.5 0 0 1 7.5 7.5zm-38 31a7.5 7.5 0 1 1-7.5-7.5 7.5 7.5 0 0 1 7.5 7.5zm-37 58a7.5 7.5 0 1 1-7.5-7.5 7.5 7.5 0 0 1 7.5 7.5z"/></g><g clip-path="url(#AJ)" class="B C D E H N"><path d="M1235 214h-224.67H898l-37.444.001c-12.482 0-24.963-.001-37.445.001s-24.963-.002-37.444.013-24.963-.01-37.445.075-24.963-.035-37.444.435-24.963-.049-37.445 2.386-24.963.682-37.444 12.226c-8.727 8.072-28.718 24.078-37.445 57.04C585.963 333.321 573.482 436.726 561 512"/></g><g clip-path="url(#AK)" class="F O B C G"><path d="M942.5 213.498a7.5 7.5 0 1 1-7.5-7.5 7.5 7.5 0 0 1 7.5 7.5zm-37 0a7.5 7.5 0 1 1-7.5-7.5 7.5 7.5 0 0 1 7.5 7.5zm-38 0a7.5 7.5 0 1 1-7.5-7.5 7.5 7.5 0 0 1 7.5 7.5zm-37 0a7.5 7.5 0 1 1-7.5-7.5 7.5 7.5 0 0 1 7.5 7.5zm-37 0a7.5 7.5 0 1 1-7.5-7.5 7.5 7.5 0 0 1 7.5 7.5zm-38 0a7.5 7.5 0 1 1-7.5-7.5 7.5 7.5 0 0 1 7.5 7.5zm-37 1a7.5 7.5 0 1 1-7.5-7.5 7.5 7.5 0 0 1 7.5 7.5zm-38 2a7.5 7.5 0 1 1-7.5-7.5 7.5 7.5 0 0 1 7.5 7.5zm-37 12a7.5 7.5 0 1 1-7.5-7.5 7.5 7.5 0 0 1 7.5 7.5zm-38 58a7.5 7.5 0 1 1-7.5-7.5 7.5 7.5 0 0 1 7.5 7.5zm-37 225.999a7.5 7.5 0 1 1-7.5-7.499 7.5 7.5 0 0 1 7.5 7.499z"/></g><g clip-path="url(#AL)" class="B C D E H P"><path d="M1235 219l-74.89.77-74.89.984-74.89 1.287-37.441.802-37.445.943L898 224.905l-37.444 1.348-37.445 1.65-37.444 2.059-37.445 2.63-37.444 3.465c-12.482 1.37-24.963 2.812-37.445 4.751s-24.963 3.931-37.444 6.881-24.963 5.768-37.445 10.82S573.482 271.503 561 278"/></g><g clip-path="url(#AM)" class="F Q B C G"><path d="M942.5 223.498a7.5 7.5 0 1 1-7.5-7.5 7.5 7.5 0 0 1 7.5 7.5zm-37 1a7.5 7.5 0 1 1-7.5-7.5 7.5 7.5 0 0 1 7.5 7.5zm-38 1a7.5 7.5 0 1 1-7.5-7.5 7.5 7.5 0 0 1 7.5 7.5zm-37 2a7.5 7.5 0 1 1-7.5-7.5 7.5 7.5 0 0 1 7.5 7.5zm-37 2a7.5 7.5 0 1 1-7.5-7.5 7.5 7.5 0 0 1 7.5 7.5zm-38 3a7.5 7.5 0 1 1-7.5-7.5 7.5 7.5 0 0 1 7.5 7.5zm-37 3a7.5 7.5 0 1 1-7.5-7.5 7.5 7.5 0 0 1 7.5 7.5zm-38 5a7.5 7.5 0 1 1-7.5-7.5 7.5 7.5 0 0 1 7.5 7.5zm-37 7a7.5 7.5 0 1 1-7.5-7.5 7.5 7.5 0 0 1 7.5 7.5zm-38 11a7.5 7.5 0 1 1-7.5-7.5 7.5 7.5 0 0 1 7.5 7.5zm-37 19a7.5 7.5 0 1 1-7.5-7.5 7.5 7.5 0 0 1 7.5 7.5z"/></g><g clip-path="url(#AN)" class="B C D E H R"><path d="M1235 216l-74.89.632-74.89.857-74.89 1.197-37.441.784-37.445.953A5442.36 5442.36 0 0 0 898 221.598l-37.444 1.471-37.445 1.873-37.444 2.437-37.445 3.252c-12.481 1.29-24.963 2.663-37.444 4.487s-24.963 3.739-37.445 6.458-24.963 5.482-37.444 9.851-24.963 8.431-37.445 16.36S573.482 288.596 561 299"/></g><g clip-path="url(#AO)" class="F S B C G"><path d="M942.5 220.498a7.5 7.5 0 1 1-7.5-7.5 7.5 7.5 0 0 1 7.5 7.5zm-37 1a7.5 7.5 0 1 1-7.5-7.5 7.5 7.5 0 0 1 7.5 7.5zm-38 2a7.5 7.5 0 1 1-7.5-7.5 7.5 7.5 0 0 1 7.5 7.5zm-37 2a7.5 7.5 0 1 1-7.5-7.5 7.5 7.5 0 0 1 7.5 7.5zm-37 2a7.5 7.5 0 1 1-7.5-7.5 7.5 7.5 0 0 1 7.5 7.5zm-38 3a7.5 7.5 0 1 1-7.5-7.5 7.5 7.5 0 0 1 7.5 7.5zm-37 5a7.5 7.5 0 1 1-7.5-7.5 7.5 7.5 0 0 1 7.5 7.5zm-38 6a7.5 7.5 0 1 1-7.5-7.5 7.5 7.5 0 0 1 7.5 7.5zm-37 10a7.5 7.5 0 1 1-7.5-7.5 7.5 7.5 0 0 1 7.5 7.5zm-38 16a7.5 7.5 0 1 1-7.5-7.5 7.5 7.5 0 0 1 7.5 7.5zm-37 31a7.5 7.5 0 1 1-7.5-7.5 7.5 7.5 0 0 1 7.5 7.5z"/></g><g class="I"><g clip-path="url(#AP)"><path d="M521.803 577.792v-2.976c0-2.56-1.712-4.368-4.128-4.368-2.4 0-4.112 1.808-4.112 4.368v2.976c0 2.56 1.712 4.368 4.112 4.368 2.416 0 4.128-1.808 4.128-4.368zm-6.48 0v-2.976c0-1.648.976-2.64 2.352-2.64 1.392 0 2.368.992 2.368 2.64v2.976c0 1.664-.976 2.64-2.368 2.64-1.376 0-2.352-.976-2.352-2.64zm10.704 2.944c0-.752-.624-1.392-1.392-1.392-.752 0-1.376.64-1.376 1.392a1.39 1.39 0 0 0 1.376 1.392c.768 0 1.392-.624 1.392-1.392zm1.712 1.264h2.208l3.808-4.768c.768-.992 1.296-1.776 1.296-2.96 0-2.128-1.6-3.824-3.904-3.824s-3.904 1.696-3.904 3.84c0 2.128 1.744 3.648 3.552 3.648h.176zm1.296-7.728c0-1.168.896-2.128 2.112-2.128s2.112.96 2.112 2.128c0 1.184-.896 2.144-2.112 2.144s-2.112-.96-2.112-2.144zm15.712 3.52v-2.976c0-2.56-1.712-4.368-4.128-4.368-2.4 0-4.112 1.808-4.112 4.368v2.976c0 2.56 1.712 4.368 4.112 4.368 2.416 0 4.128-1.808 4.128-4.368zm-6.48 0v-2.976c0-1.648.976-2.64 2.352-2.64 1.392 0 2.368.992 2.368 2.64v2.976c0 1.664-.976 2.64-2.368 2.64-1.376 0-2.352-.976-2.352-2.64z"/></g><g clip-path="url(#AQ)"><path d="M522.776 504.792v-2.976c0-2.56-1.712-4.368-4.128-4.368-2.4 0-4.112 1.808-4.112 4.368v2.976c0 2.56 1.712 4.368 4.112 4.368 2.416 0 4.128-1.808 4.128-4.368zm-6.48 0v-2.976c0-1.648.976-2.64 2.352-2.64 1.392 0 2.368.992 2.368 2.64v2.976c0 1.664-.976 2.64-2.368 2.64-1.376 0-2.352-.976-2.352-2.64zM527 507.736c0-.752-.624-1.392-1.392-1.392-.752 0-1.376.64-1.376 1.392a1.39 1.39 0 0 0 1.376 1.392c.768 0 1.392-.624 1.392-1.392zm1.712 1.264h2.208l3.808-4.768c.768-.992 1.296-1.776 1.296-2.96 0-2.128-1.6-3.824-3.904-3.824s-3.904 1.696-3.904 3.84c0 2.128 1.744 3.648 3.552 3.648h.176zm1.296-7.728c0-1.168.896-2.128 2.112-2.128s2.112.96 2.112 2.128c0 1.184-.896 2.144-2.112 2.144s-2.112-.96-2.112-2.144zm14.832 6h-5.2c.288-1.024 1.552-1.664 2.576-2.432 1.664-1.2 2.512-2.176 2.512-3.984 0-2.256-1.664-3.408-3.568-3.408-2.16 0-3.84 1.472-3.84 3.664h1.776c.016-1.2.912-1.936 2.048-1.936 1.12 0 1.808.72 1.808 1.728 0 1.152-.736 1.792-1.904 2.64-1.664 1.232-3.728 2.32-3.728 4.816v.64h7.52z"/></g><g clip-path="url(#AR)"><path d="M521.803 432.792v-2.976c0-2.56-1.712-4.368-4.128-4.368-2.4 0-4.112 1.808-4.112 4.368v2.976c0 2.56 1.712 4.368 4.112 4.368 2.416 0 4.128-1.808 4.128-4.368zm-6.48 0v-2.976c0-1.648.976-2.64 2.352-2.64 1.392 0 2.368.992 2.368 2.64v2.976c0 1.664-.976 2.64-2.368 2.64-1.376 0-2.352-.976-2.352-2.64zm10.704 2.944c0-.752-.624-1.392-1.392-1.392-.752 0-1.376.64-1.376 1.392a1.39 1.39 0 0 0 1.376 1.392c.768 0 1.392-.624 1.392-1.392zm1.712 1.264h2.208l3.808-4.768c.768-.992 1.296-1.776 1.296-2.96 0-2.128-1.6-3.824-3.904-3.824s-3.904 1.696-3.904 3.84c0 2.128 1.744 3.648 3.552 3.648h.176zm1.296-7.728c0-1.168.896-2.128 2.112-2.128s2.112.96 2.112 2.128c0 1.184-.896 2.144-2.112 2.144s-2.112-.96-2.112-2.144zM541.403 437h1.76v-2.848h1.52v-1.632h-1.52v-6.88h-1.568l-6.064 7.088v1.424h5.872zm0-4.48h-3.664l3.664-4.256z"/></g><g clip-path="url(#AS)"><path d="M522.796 359.792v-2.976c0-2.56-1.712-4.368-4.128-4.368-2.4 0-4.112 1.808-4.112 4.368v2.976c0 2.56 1.712 4.368 4.112 4.368 2.416 0 4.128-1.808 4.128-4.368zm-6.48 0v-2.976c0-1.648.976-2.64 2.352-2.64 1.392 0 2.368.992 2.368 2.64v2.976c0 1.664-.976 2.64-2.368 2.64-1.376 0-2.352-.976-2.352-2.64zm10.704 2.944c0-.752-.624-1.392-1.392-1.392-.752 0-1.376.64-1.376 1.392a1.39 1.39 0 0 0 1.376 1.392c.768 0 1.392-.624 1.392-1.392zm1.712 1.264h2.208l3.808-4.768c.768-.992 1.296-1.776 1.296-2.96 0-2.128-1.6-3.824-3.904-3.824s-3.904 1.696-3.904 3.84c0 2.128 1.744 3.648 3.552 3.648h.176zm1.296-7.728c0-1.168.896-2.128 2.112-2.128s2.112.96 2.112 2.128c0 1.184-.896 2.144-2.112 2.144s-2.112-.96-2.112-2.144zm14.608 4.048c0-2.128-1.744-3.648-3.536-3.648h-.176l3.2-4.032h-2.208l-3.792 4.752c-.752.992-1.28 1.776-1.28 2.944 0 2.144 1.584 3.824 3.888 3.824 2.32 0 3.904-1.68 3.904-3.84zm-6.016.016c0-1.168.896-2.128 2.112-2.128s2.128.96 2.128 2.128c0 1.184-.912 2.128-2.128 2.128s-2.112-.944-2.112-2.128z"/></g><g clip-path="url(#AT)"><path d="M522.556 286.792v-2.976c0-2.56-1.712-4.368-4.128-4.368-2.4 0-4.112 1.808-4.112 4.368v2.976c0 2.56 1.712 4.368 4.112 4.368 2.416 0 4.128-1.808 4.128-4.368zm-6.48 0v-2.976c0-1.648.976-2.64 2.352-2.64 1.392 0 2.368.992 2.368 2.64v2.976c0 1.664-.976 2.64-2.368 2.64-1.376 0-2.352-.976-2.352-2.64zm10.704 2.944c0-.752-.624-1.392-1.392-1.392-.752 0-1.376.64-1.376 1.392a1.39 1.39 0 0 0 1.376 1.392c.768 0 1.392-.624 1.392-1.392zm1.712 1.264h2.208l3.808-4.768c.768-.992 1.296-1.776 1.296-2.96 0-2.128-1.6-3.824-3.904-3.824s-3.904 1.696-3.904 3.84c0 2.128 1.744 3.648 3.552 3.648h.176zm1.296-7.728c0-1.168.896-2.128 2.112-2.128s2.112.96 2.112 2.128c0 1.184-.896 2.144-2.112 2.144s-2.112-.96-2.112-2.144zm15.12 4.288c0-1.312-.592-2.304-1.616-2.864.672-.528 1.056-1.328 1.056-2.256 0-1.728-1.36-2.992-3.36-2.992-1.952 0-3.344 1.264-3.344 2.992 0 .928.384 1.728 1.072 2.256-1.024.56-1.632 1.552-1.632 2.864 0 2.096 1.664 3.6 3.904 3.6 2.288 0 3.92-1.504 3.92-3.6zm-5.552-5.008c0-.848.672-1.504 1.632-1.504 1.008 0 1.648.656 1.648 1.504 0 .816-.64 1.504-1.648 1.504-.96 0-1.632-.688-1.632-1.504zm-.48 4.976c0-1.088.816-1.984 2.128-1.984 1.328 0 2.112.896 2.112 1.984 0 1.072-.784 1.984-2.128 1.984-1.296 0-2.112-.912-2.112-1.984z"/></g><g clip-path="url(#AU)"><path d="M518.515 219h1.76v-11.36h-2.704l-1.344 1.744h2.288zm6.672-1.264c0-.752-.624-1.392-1.392-1.392-.752 0-1.376.64-1.376 1.392a1.39 1.39 0 0 0 1.376 1.392c.768 0 1.392-.624 1.392-1.392zm9.712-2.944v-2.976c0-2.56-1.712-4.368-4.128-4.368-2.4 0-4.112 1.808-4.112 4.368v2.976c0 2.56 1.712 4.368 4.112 4.368 2.416 0 4.128-1.808 4.128-4.368zm-6.48 0v-2.976c0-1.648.976-2.64 2.352-2.64 1.392 0 2.368.992 2.368 2.64v2.976c0 1.664-.976 2.64-2.368 2.64-1.376 0-2.352-.976-2.352-2.64zm16.496 0v-2.976c0-2.56-1.712-4.368-4.128-4.368-2.4 0-4.112 1.808-4.112 4.368v2.976c0 2.56 1.712 4.368 4.112 4.368 2.416 0 4.128-1.808 4.128-4.368zm-6.48 0v-2.976c0-1.648.976-2.64 2.352-2.64 1.392 0 2.368.992 2.368 2.64v2.976c0 1.664-.976 2.64-2.368 2.64-1.376 0-2.352-.976-2.352-2.64z"/></g><g clip-path="url(#AV)"><path d="M555.931 604h1.76v-11.36h-2.704l-1.344 1.744h2.288zm12.304-4.208v-2.976c0-2.56-1.712-4.368-4.128-4.368-2.4 0-4.112 1.808-4.112 4.368v2.976c0 2.56 1.712 4.368 4.112 4.368 2.416 0 4.128-1.808 4.128-4.368zm-6.48 0v-2.976c0-1.648.976-2.64 2.352-2.64 1.392 0 2.368.992 2.368 2.64v2.976c0 1.664-.976 2.64-2.368 2.64-1.376 0-2.352-.976-2.352-2.64z"/></g><g clip-path="url(#AW)"><path d="M634.973 602.272h-5.2c.288-1.024 1.552-1.664 2.576-2.432 1.664-1.2 2.512-2.176 2.512-3.984 0-2.256-1.664-3.408-3.568-3.408-2.16 0-3.84 1.472-3.84 3.664h1.776c.016-1.2.912-1.936 2.048-1.936 1.12 0 1.808.72 1.808 1.728 0 1.152-.736 1.792-1.904 2.64-1.664 1.232-3.728 2.32-3.728 4.816v.64h7.52zm9.92-2.48v-2.976c0-2.56-1.712-4.368-4.128-4.368-2.4 0-4.112 1.808-4.112 4.368v2.976c0 2.56 1.712 4.368 4.112 4.368 2.416 0 4.128-1.808 4.128-4.368zm-6.48 0v-2.976c0-1.648.976-2.64 2.352-2.64 1.392 0 2.368.992 2.368 2.64v2.976c0 1.664-.976 2.64-2.368 2.64-1.376 0-2.352-.976-2.352-2.64z"/></g><g clip-path="url(#AX)"><path d="M710.046 600.8c0-1.296-.72-2.256-1.712-2.688a2.908 2.908 0 0 0 1.392-2.464c.016-1.856-1.44-3.2-3.552-3.2-2.048 0-3.856 1.376-3.856 3.664h1.776c0-1.216.912-1.936 2.08-1.936.992 0 1.792.64 1.776 1.584s-.752 1.616-1.872 1.616h-.896v1.504h.896c1.312 0 2.192.608 2.192 1.808-.016 1.104-.896 1.744-2.032 1.744-1.28 0-2.272-.752-2.368-2h-1.76c.048 2.288 1.904 3.728 4.128 3.728 2.256 0 3.808-1.36 3.808-3.36zm9.904-1.008v-2.976c0-2.56-1.712-4.368-4.128-4.368-2.4 0-4.112 1.808-4.112 4.368v2.976c0 2.56 1.712 4.368 4.112 4.368 2.416 0 4.128-1.808 4.128-4.368zm-6.48 0v-2.976c0-1.648.976-2.64 2.352-2.64 1.392 0 2.368.992 2.368 2.64v2.976c0 1.664-.976 2.64-2.368 2.64-1.376 0-2.352-.976-2.352-2.64z"/></g><g clip-path="url(#AY)"><path d="M782.181 604h1.76v-2.848h1.52v-1.632h-1.52v-6.88h-1.568l-6.064 7.088v1.424h5.872zm0-4.48h-3.664l3.664-4.256zm13.008.272v-2.976c0-2.56-1.712-4.368-4.128-4.368-2.4 0-4.112 1.808-4.112 4.368v2.976c0 2.56 1.712 4.368 4.112 4.368 2.416 0 4.128-1.808 4.128-4.368zm-6.48 0v-2.976c0-1.648.976-2.64 2.352-2.64 1.392 0 2.368.992 2.368 2.64v2.976c0 1.664-.976 2.64-2.368 2.64-1.376 0-2.352-.976-2.352-2.64z"/></g><g clip-path="url(#AZ)"><path d="M851.987 600.816c.064 1.888 1.856 3.344 3.92 3.344 2.288 0 3.904-1.536 3.904-3.664 0-2.256-1.424-3.92-3.584-3.92-.736 0-1.36.208-1.776.496l.528-2.72h4.032v-1.712h-5.408l-1.216 6.24 1.584.496c.368-.704 1.056-1.168 1.984-1.168 1.216 0 2.08.928 2.08 2.112 0 1.168-.848 2.112-2.128 2.112-1.04 0-1.888-.688-2.112-1.616zm17.6-1.024v-2.976c0-2.56-1.712-4.368-4.128-4.368-2.4 0-4.112 1.808-4.112 4.368v2.976c0 2.56 1.712 4.368 4.112 4.368 2.416 0 4.128-1.808 4.128-4.368zm-6.48 0v-2.976c0-1.648.976-2.64 2.352-2.64 1.392 0 2.368.992 2.368 2.64v2.976c0 1.664-.976 2.64-2.368 2.64-1.376 0-2.352-.976-2.352-2.64z"/></g><g clip-path="url(#Aa)"><path d="M934.708 600.32c0-2.128-1.744-3.648-3.536-3.648h-.176l3.2-4.032h-2.208l-3.792 4.752c-.752.992-1.28 1.776-1.28 2.944 0 2.144 1.584 3.824 3.888 3.824 2.32 0 3.904-1.68 3.904-3.84zm-6.016.016c0-1.168.896-2.128 2.112-2.128s2.128.96 2.128 2.128c0 1.184-.912 2.128-2.128 2.128s-2.112-.944-2.112-2.128zm15.808-.544v-2.976c0-2.56-1.712-4.368-4.128-4.368-2.4 0-4.112 1.808-4.112 4.368v2.976c0 2.56 1.712 4.368 4.112 4.368 2.416 0 4.128-1.808 4.128-4.368zm-6.48 0v-2.976c0-1.648.976-2.64 2.352-2.64 1.392 0 2.368.992 2.368 2.64v2.976c0 1.664-.976 2.64-2.368 2.64-1.376 0-2.352-.976-2.352-2.64z"/></g></g><g fill="#68788e" clip-path="url(#Ab)"><path d="M688.12 644h1.872v-4.992h.848L695 644h2.304l-4.224-5.104c1.632-.384 2.576-1.424 2.576-3.024 0-1.872-1.328-3.232-3.44-3.232h-4.096zm1.872-6.624v-3.008h2c1.104 0 1.792.528 1.792 1.504s-.688 1.504-1.792 1.504zm7.376 2.624c0 2.432 1.744 4.16 4.176 4.16 1.68 0 2.928-.72 3.648-1.856l-1.344-.96c-.416.704-1.168 1.216-2.288 1.216-1.328 0-2.384-.864-2.464-2.176h6.288l.016-.576c0-2.576-1.76-3.968-3.856-3.968-2.432 0-4.176 1.808-4.176 4.16zm4.112-2.672c1.024 0 1.952.624 2.144 1.776h-4.448c.24-1.184 1.28-1.776 2.304-1.776zm5.728 6.672h1.76v-12h-1.76zm3.552-4c0 2.288 1.664 4.16 3.856 4.16 1.152 0 2.112-.592 2.56-1.232V644h1.76v-8h-1.76v1.072c-.448-.64-1.408-1.232-2.56-1.232-2.192 0-3.856 1.872-3.856 4.16zm6.56 0c0 1.44-.96 2.56-2.384 2.56s-2.384-1.12-2.384-2.56.96-2.56 2.384-2.56 2.384 1.12 2.384 2.56zm8.784 3.904v-1.568c-.256.096-.608.16-.944.16-.912 0-1.344-.368-1.344-1.36v-3.568h2.288V636h-2.288v-2.224h-1.76V636h-1.664v1.568h1.664v3.856c0 1.808 1.2 2.656 2.736 2.656.544 0 .96-.064 1.312-.176zm3.712-10.832c0-.64-.512-1.168-1.168-1.168a1.19 1.19 0 0 0-1.184 1.168c0 .656.544 1.184 1.184 1.184.656 0 1.168-.528 1.168-1.184zM727.768 644h1.76v-8h-1.76zm6.624 0h1.552l3.632-8h-1.968l-2.448 5.6-2.432-5.6h-1.952zm5.648-4c0 2.432 1.744 4.16 4.176 4.16 1.68 0 2.928-.72 3.648-1.856l-1.344-.96c-.416.704-1.168 1.216-2.288 1.216-1.328 0-2.384-.864-2.464-2.176h6.288l.016-.576c0-2.576-1.76-3.968-3.856-3.968-2.432 0-4.176 1.808-4.176 4.16zm4.112-2.672c1.024 0 1.952.624 2.144 1.776h-4.448c.24-1.184 1.28-1.776 2.304-1.776zm14.928 4.352c0-1.312-.832-2.016-2.24-2.432l-.816-.24c-.784-.224-.96-.56-.96-.944 0-.48.544-.752 1.072-.752.656 0 1.168.32 1.52.816l1.216-.928c-.56-.88-1.504-1.36-2.704-1.36-1.6 0-2.848.864-2.864 2.288-.016 1.184.704 2.064 2.096 2.448l.704.192c.96.288 1.232.56 1.232 1.024 0 .56-.528.848-1.152.848-.816 0-1.6-.4-1.92-1.104l-1.296.928c.576 1.136 1.792 1.696 3.216 1.696 1.648 0 2.896-.944 2.896-2.48zm3.872-8.608c0-.64-.512-1.168-1.168-1.168a1.19 1.19 0 0 0-1.184 1.168c0 .656.544 1.184 1.184 1.184.656 0 1.168-.528 1.168-1.184zM760.904 644h1.76v-8h-1.76zm3.584 0h6.592v-1.6h-4.304l4.176-4.992V636h-6.4v1.6h4.128l-4.192 5.008zm7.696-4c0 2.432 1.744 4.16 4.176 4.16 1.68 0 2.928-.72 3.648-1.856l-1.344-.96c-.416.704-1.168 1.216-2.288 1.216-1.328 0-2.384-.864-2.464-2.176h6.288l.016-.576c0-2.576-1.76-3.968-3.856-3.968-2.432 0-4.176 1.808-4.176 4.16zm4.112-2.672c1.024 0 1.952.624 2.144 1.776h-4.448c.24-1.184 1.28-1.776 2.304-1.776zm9.664 9.232h3.232v-1.36h-1.712v-12.64h1.712v-1.36h-3.232zm10.448-10.896a3.158 3.158 0 0 0-3.152-3.152 3.148 3.148 0 0 0-3.152 3.152 3.158 3.158 0 0 0 3.152 3.152 3.169 3.169 0 0 0 3.152-3.152zM792.984 644h1.856l7.2-11.36h-1.856zm-1.328-8.336c0-.88.704-1.616 1.6-1.616s1.6.736 1.6 1.616-.704 1.616-1.6 1.616-1.6-.736-1.6-1.616zm13.264 5.312a3.158 3.158 0 0 0-3.152-3.152 3.148 3.148 0 0 0-3.152 3.152 3.158 3.158 0 0 0 3.152 3.152 3.169 3.169 0 0 0 3.152-3.152zm-4.768 0c0-.88.72-1.616 1.616-1.616.88 0 1.584.736 1.584 1.616s-.704 1.616-1.584 1.616a1.622 1.622 0 0 1-1.616-1.616zm8.912 5.584V631.2h-3.232v1.36h1.712v12.64h-1.712v1.36z"/></g><g clip-path="url(#Ac)" class="I"><path d="M692.117 140h3.04v-10.602h3.477v-2.888h-9.956v2.888h3.439zm10.868.209c1.995 0 3.572-.836 4.465-2.09l-2.128-1.596c-.361.551-1.197 1.083-2.299 1.083-1.083 0-2.147-.532-2.318-1.672h6.897c.057-.456.057-.76.057-1.007 0-3.078-2.223-4.636-4.731-4.636-2.888 0-4.997 2.128-4.997 4.959 0 3.059 2.261 4.959 5.054 4.959zm-.133-7.581c.836 0 1.71.418 1.957 1.425h-4.028c.247-1.045 1.235-1.425 2.071-1.425zm5.13 7.372h3.439l2.014-2.584 2.014 2.584h3.42l-3.63-4.598 3.61-4.902h-3.42l-2.013 2.755-2.014-2.755h-3.382l3.61 4.902z"/><path d="M724.36 140.114c.76 0 1.292-.076 1.71-.19v-2.546c-.304.114-.608.171-1.045.171-1.14 0-1.615-.475-1.615-1.615v-2.945h2.66V130.5h-2.66v-2.641h-2.87v2.641h-1.9v2.489h1.9v3.534c0 2.413 1.71 3.591 3.82 3.591zm7.524-.114h3.02v-13.49h-3.02zm5.168 0h2.869v-4.617c0-1.729.703-2.489 1.71-2.489.969 0 1.368.798 1.368 2.185V140h2.869v-4.617c0-1.729.703-2.489 1.71-2.489.969 0 1.368.798 1.368 2.185V140h2.869v-5.415c0-2.641-1.292-4.294-3.61-4.294-.988 0-2.3.513-2.907 1.672-.59-1.045-1.577-1.672-2.945-1.672-1.121 0-1.938.513-2.432 1.178v-.969h-2.87zm20.71.209c1.273 0 2.204-.646 2.584-1.159v.95h2.869v-9.5h-2.87v.95c-.38-.513-1.31-1.159-2.583-1.159-2.49 0-4.408 2.261-4.408 4.959s1.919 4.959 4.408 4.959zm.646-2.603c-1.292 0-2.166-.988-2.166-2.356s.874-2.356 2.166-2.356 2.166.988 2.166 2.356-.874 2.356-2.166 2.356zm11.514 6.555c2.964 0 5.187-1.444 5.187-4.959V130.5h-2.87v.95c-.436-.646-1.424-1.159-2.583-1.159-2.432 0-4.446 2.128-4.446 4.788s2.014 4.788 4.446 4.788c1.159 0 2.147-.513 2.584-1.159v.532c0 1.33-.836 2.413-2.356 2.413-.931 0-2.014-.304-2.87-1.045l-1.5 2.147c1.159 1.007 2.888 1.406 4.408 1.406zm.36-6.897c-1.158 0-2.184-.855-2.184-2.185s1.026-2.185 2.185-2.185 2.185.855 2.185 2.185-1.026 2.185-2.185 2.185zm11.818 2.945c1.996 0 3.573-.836 4.466-2.09l-2.128-1.596c-.361.551-1.197 1.083-2.3 1.083-1.082 0-2.146-.532-2.317-1.672h6.897c.057-.456.057-.76.057-1.007 0-3.078-2.223-4.636-4.731-4.636-2.888 0-4.997 2.128-4.997 4.959 0 3.059 2.26 4.959 5.054 4.959zm-.132-7.581c.836 0 1.71.418 1.957 1.425h-4.028c.247-1.045 1.235-1.425 2.07-1.425zm9.937 7.581c2.09 0 3.705-1.311 3.705-3.154 0-1.71-1.064-2.546-2.793-3.002l-.874-.228c-.722-.19-.798-.475-.798-.684 0-.361.418-.494.779-.494.55 0 1.064.209 1.5.76l1.863-1.539c-.76-1.045-1.881-1.577-3.344-1.577-2.071 0-3.61 1.159-3.648 2.926-.038 1.52.893 2.679 2.698 3.116l.627.152c.988.247 1.159.418 1.159.741 0 .38-.437.532-.874.532-.874 0-1.615-.361-2.052-.988l-1.9 1.729c.874 1.159 2.299 1.71 3.952 1.71z"/></g><g clip-path="url(#Ad)" class="B C D E K L"><path d="M599 169h25"/></g><g clip-path="url(#Ae)" class="B C F G M"><path d="M615 168.5a3.5 3.5 0 1 1-7 0 3.5 3.5 0 0 1 7 0Z"/></g><g clip-path="url(#Af)" class="I"><path d="M633.323 170.27v-7.21h-1.638v7.07c0 1.078-.658 1.512-1.4 1.512-.756 0-1.428-.476-1.428-1.4h-1.624c0 1.96 1.414 2.926 3.052 2.926 1.596 0 3.038-.84 3.038-2.898zm5.516-7.21h-3.164V173h1.638v-3.444h1.526c2.044 0 3.444-1.414 3.444-3.248s-1.4-3.248-3.444-3.248zm-.014 4.956h-1.512V164.6h1.512c1.162 0 1.848.742 1.848 1.708s-.686 1.708-1.848 1.708zm5.082 4.984h5.978v-1.568h-4.34v-2.688h3.5v-1.568h-3.5v-2.548h4.34v-1.568h-5.978zm16.31-1.26v-4.55h-4.088v1.54h2.492v2.212c-.56.462-1.484.644-2.38.644-2.268 0-3.71-1.54-3.71-3.556 0-1.974 1.47-3.556 3.556-3.556 1.204 0 2.086.434 2.73 1.078l1.12-1.162c-.924-.952-2.226-1.498-3.85-1.498-2.996 0-5.208 2.268-5.208 5.138 0 2.898 2.254 5.138 5.376 5.138 1.526 0 3.066-.462 3.962-1.428z"/></g><g clip-path="url(#Ag)" class="B C D E H N"><path d="M678 169h25"/></g><g clip-path="url(#Ah)" class="B C F G O"><path d="M694 168.5a3.5 3.5 0 1 1-7 0 3.5 3.5 0 0 1 7 0Z"/></g><g clip-path="url(#Ai)" class="I"><path d="M710.506 163.06h-3.164V173h1.638v-3.444h1.526c2.044 0 3.444-1.414 3.444-3.248s-1.4-3.248-3.444-3.248zm-.014 4.956h-1.512V164.6h1.512c1.162 0 1.848.742 1.848 1.708s-.686 1.708-1.848 1.708zM724.24 173v-9.94h-1.652v7.126l-5.586-7.126h-1.428V173h1.638v-7.154l5.6 7.154zm11.144-1.26v-4.55h-4.088v1.54h2.492v2.212c-.56.462-1.484.644-2.38.644-2.268 0-3.71-1.54-3.71-3.556 0-1.974 1.47-3.556 3.556-3.556 1.204 0 2.086.434 2.73 1.078l1.12-1.162c-.924-.952-2.226-1.498-3.85-1.498-2.996 0-5.208 2.268-5.208 5.138 0 2.898 2.254 5.138 5.376 5.138 1.526 0 3.066-.462 3.962-1.428z"/></g><g clip-path="url(#Aj)" class="B C D E H P"><path d="M753 169h25"/></g><g clip-path="url(#Ak)" class="B C F G Q"><path d="M769 168.5a3.5 3.5 0 1 1-7 0 3.5 3.5 0 0 1 7 0Z"/></g><g clip-path="url(#Al)" class="I"><path d="M790.01 173h1.512l2.576-9.94h-1.736l-1.82 7.224-2.842-7.392-2.842 7.392-1.82-7.224h-1.722l2.562 9.94h1.512l2.31-6.076zm4.41-3.5c0 2.128 1.526 3.64 3.654 3.64 1.47 0 2.562-.63 3.192-1.624l-1.176-.84c-.364.616-1.022 1.064-2.002 1.064-1.162 0-2.086-.756-2.156-1.904h5.502l.014-.504c0-2.254-1.54-3.472-3.374-3.472-2.128 0-3.654 1.582-3.654 3.64zm3.598-2.338c.896 0 1.708.546 1.876 1.554h-3.892c.21-1.036 1.12-1.554 2.016-1.554zm6.552 4.9c.392.56 1.246 1.078 2.254 1.078 1.918 0 3.374-1.638 3.374-3.64s-1.456-3.64-3.374-3.64c-1.008 0-1.862.518-2.254 1.078V162.5h-1.54V173h1.54zm4.06-2.562c0 1.26-.854 2.24-2.086 2.24-1.246 0-2.1-.98-2.1-2.24s.854-2.24 2.1-2.24c1.232 0 2.086.98 2.086 2.24zm6.398-6.44h-3.164V173h1.638v-3.444h1.526c2.044 0 3.444-1.414 3.444-3.248s-1.4-3.248-3.444-3.248zm-.014 4.956h-1.512V164.6h1.512c1.162 0 1.848.742 1.848 1.708s-.686 1.708-1.848 1.708z"/></g><g clip-path="url(#Am)" class="B C D E H R"><path d="M836 169h26"/></g><g clip-path="url(#An)" class="B C F G S"><path d="M852 168.5a3.5 3.5 0 1 1-7 0 3.5 3.5 0 0 1 7 0Z"/></g><g clip-path="url(#Ao)" class="I"><path d="M864.376 173h1.694l1.12-2.604h4.452l1.134 2.604h1.708l-4.34-9.94h-1.428Zm3.444-4.06 1.596-3.682 1.596 3.682Zm9.996 4.06h1.428l4.172-9.94h-1.806l-3.08 7.434-3.094-7.434h-1.792Zm6.902 0h1.638v-9.94h-1.638zm4.074 0h1.638v-4.256h3.36v-1.554h-3.36v-2.562h4.27v-1.568h-5.908z"/></g><path fill="#333" d="M833.694 686.09h-4.956V701h3.045v-4.872h1.911c3.024 0 5.229-2.184 5.229-5.019s-2.205-5.019-5.229-5.019zm-.042 7.182h-1.869v-4.326h1.869c1.386 0 2.31.945 2.31 2.163s-.924 2.163-2.31 2.163zm7.077 7.728h2.877v-5.124c0-2.016 1.008-2.982 2.331-2.982 1.197 0 1.848.924 1.848 2.436V701h2.877v-6.153c0-2.73-1.512-4.578-4.053-4.578-1.365 0-2.457.588-3.003 1.428v-6.447h-2.877zm22.931-5.25c0-3.066-2.477-5.481-5.522-5.481s-5.523 2.415-5.523 5.481 2.478 5.481 5.523 5.481 5.523-2.415 5.523-5.481zm-8.147 0c0-1.617 1.113-2.793 2.625-2.793s2.604 1.176 2.604 2.793-1.092 2.793-2.604 2.793-2.625-1.176-2.625-2.793zm16.905 5.145v-2.541c-.336.126-.714.189-1.176.189-1.24 0-1.785-.504-1.785-1.785v-3.738h2.96v-2.52h-2.96v-2.919h-2.877v2.919h-2.121v2.52h2.12v4.305c0 2.562 1.786 3.801 4.012 3.801.798 0 1.365-.084 1.827-.231zm1.932-4.305c0 2.793 1.407 4.641 3.948 4.641 1.344 0 2.33-.588 2.877-1.428V701h2.877v-10.5h-2.877v5.124c0 2.037-.882 2.982-2.163 2.982-1.24 0-1.785-.924-1.785-2.499V690.5h-2.877zm19.383 4.305v-2.541c-.336.126-.714.189-1.176.189-1.24 0-1.785-.504-1.785-1.785v-3.738h2.96v-2.52h-2.96v-2.919h-2.877v2.919h-2.121v2.52h2.12v4.305c0 2.562 1.786 3.801 4.012 3.801.798 0 1.365-.084 1.827-.231zm12.264-5.145c0-3.066-2.478-5.481-5.523-5.481s-5.523 2.415-5.523 5.481 2.478 5.481 5.523 5.481 5.523-2.415 5.523-5.481zm-8.148 0c0-1.617 1.113-2.793 2.625-2.793s2.604 1.176 2.604 2.793-1.092 2.793-2.604 2.793-2.625-1.176-2.625-2.793zm10.227 5.25h2.877v-5.019c0-1.722.903-2.793 2.268-2.793.462 0 .86.084 1.302.231V690.5a3.303 3.303 0 0 0-.966-.126c-1.176 0-2.247.777-2.604 1.806v-1.68h-2.877zm11.571-14.049a1.833 1.833 0 0 0-1.848-1.827c-.987 0-1.827.819-1.827 1.827s.84 1.827 1.827 1.827a1.833 1.833 0 0 0 1.848-1.827zM916.37 701h2.877v-10.5h-2.877zm4.978-5.25c0 2.982 2.142 5.481 4.935 5.481 1.449 0 2.562-.735 3.024-1.407V701h2.877v-10.5h-2.877v1.176c-.462-.672-1.575-1.407-3.024-1.407-2.793 0-4.935 2.499-4.935 5.481zm8.19 0c0 1.638-1.071 2.856-2.646 2.856s-2.646-1.218-2.646-2.856 1.07-2.856 2.646-2.856 2.646 1.218 2.646 2.856zm5.439 5.25h2.877v-15.75h-2.877z"/></g></svg>